<svg width="373" height="54" viewBox="0 0 373 54" fill="none" xmlns="http://www.w3.org/2000/svg">
<path d="M12.842 16.9257L21.5971 11.9878C23.6589 10.8272 24.3625 8.25391 23.1735 6.24136C21.9845 4.2288 19.3481 3.53766 17.2863 4.7026L2.1543 13.231L12.842 16.9257Z" fill="white"/>
<path d="M19.4418 29.6091C20.9292 29.6091 22.381 28.8528 23.1781 27.5053C24.3671 25.4928 23.6635 22.9194 21.6016 21.7588L6.46516 13.2305C4.40332 12.0698 1.76701 12.7567 0.578006 14.7692C-0.611002 16.7818 0.092606 19.3551 2.15445 20.5157L17.291 29.044C17.9678 29.4266 18.7115 29.6091 19.4418 29.6091Z" fill="white"/>
<path d="M34.4934 29.6092C35.2237 29.6092 35.9674 29.4266 36.6443 29.0441L51.7808 20.5157L41.2311 16.7471L32.3381 21.7589C30.2762 22.9195 29.5726 25.4928 30.7616 27.5053C31.5587 28.8572 33.006 29.6092 34.4934 29.6092Z" fill="white"/>
<path d="M49.6215 21.0818C51.1089 21.0818 52.5606 20.3254 53.3577 18.9779C54.5468 16.9654 53.8432 14.3921 51.7813 13.2315L36.6448 4.70311C34.583 3.54252 31.9467 4.22931 30.7577 6.24187C29.5687 8.25445 30.2723 10.8277 32.3341 11.9883L47.4706 20.5167C48.1519 20.8992 48.8912 21.0818 49.6215 21.0818Z" fill="white"/>
<path d="M74.7395 26.7753C72.9453 26.7753 71.285 26.3378 69.7573 25.4629C68.2477 24.588 67.0488 23.3828 66.1605 21.8472C65.2904 20.3116 64.855 18.6154 64.855 16.7585C64.855 14.9015 65.2904 13.2053 66.1605 11.6697C67.0488 10.1342 68.2477 8.92894 69.7573 8.05406C71.285 7.17917 72.9453 6.7417 74.7395 6.7417C76.1425 6.7417 77.4571 6.99169 78.6826 7.49162C79.9257 7.99154 80.9473 8.69685 81.7466 9.60746L80.1213 11.2412C79.5177 10.4913 78.7359 9.91991 77.7768 9.52711C76.8352 9.11642 75.8227 8.91111 74.7395 8.91111C73.4073 8.91111 72.1551 9.24145 70.9828 9.90207C69.8281 10.5449 68.8956 11.4644 68.1853 12.6607C67.4926 13.8392 67.1463 15.2051 67.1463 16.7585C67.1463 18.3119 67.4926 19.6868 68.1853 20.883C68.8956 22.0615 69.8281 22.9811 70.9828 23.6417C72.1551 24.2845 73.4073 24.6059 74.7395 24.6059C76.0183 24.6059 77.0841 24.4094 77.9366 24.0166C78.8067 23.6059 79.5618 23.0703 80.2013 22.4097C80.6633 21.9097 81.0363 21.3026 81.3203 20.5884C81.6042 19.8742 81.7732 19.0975 81.8265 18.2583H74.7928V16.1425H83.9579C84.0469 16.6424 84.0911 17.1067 84.0911 17.5352C84.0911 18.7136 83.9046 19.8653 83.5316 20.9902C83.1586 22.0972 82.5634 23.0703 81.7466 23.9095C79.9524 25.82 77.6169 26.7753 74.7395 26.7753ZM92.8209 26.7753C91.5245 26.7753 90.3613 26.4717 89.3307 25.8646C88.3007 25.2397 87.4923 24.3916 86.9062 23.3203C86.3382 22.2311 86.0536 21.0259 86.0536 19.7046C86.0536 18.3833 86.3382 17.187 86.9062 16.1157C87.4923 15.0265 88.3007 14.1784 89.3307 13.5713C90.3613 12.9464 91.5245 12.6339 92.8209 12.6339C94.1179 12.6339 95.2811 12.9464 96.3111 13.5713C97.3593 14.1784 98.1677 15.0265 98.7356 16.1157C99.3218 17.187 99.6148 18.3833 99.6148 19.7046C99.6148 21.0259 99.3218 22.2311 98.7356 23.3203C98.1677 24.3916 97.3593 25.2397 96.3111 25.8646C95.2811 26.4717 94.1179 26.7753 92.8209 26.7753ZM92.8209 24.713C93.6202 24.713 94.3662 24.5077 95.0589 24.097C95.7516 23.6863 96.3027 23.106 96.7108 22.3561C97.137 21.5883 97.3502 20.7045 97.3502 19.7046C97.3502 18.7047 97.137 17.8298 96.7108 17.0799C96.3027 16.3121 95.7516 15.7229 95.0589 15.3122C94.3662 14.9015 93.6202 14.6962 92.8209 14.6962C92.0398 14.6962 91.3022 14.9015 90.6095 15.3122C89.9168 15.7229 89.3573 16.3121 88.931 17.0799C88.5229 17.8298 88.3182 18.7047 88.3182 19.7046C88.3182 20.7045 88.5229 21.5883 88.931 22.3561C89.3573 23.106 89.9168 23.6863 90.6095 24.097C91.3022 24.5077 92.0398 24.713 92.8209 24.713ZM108.198 26.7753C106.901 26.7753 105.738 26.4717 104.708 25.8646C103.678 25.2397 102.869 24.3916 102.283 23.3203C101.715 22.2311 101.43 21.0259 101.43 19.7046C101.43 18.3833 101.715 17.187 102.283 16.1157C102.869 15.0265 103.678 14.1784 104.708 13.5713C105.738 12.9464 106.901 12.6339 108.198 12.6339C109.495 12.6339 110.658 12.9464 111.688 13.5713C112.736 14.1784 113.544 15.0265 114.112 16.1157C114.699 17.187 114.992 18.3833 114.992 19.7046C114.992 21.0259 114.699 22.2311 114.112 23.3203C113.544 24.3916 112.736 25.2397 111.688 25.8646C110.658 26.4717 109.495 26.7753 108.198 26.7753ZM108.198 24.713C108.997 24.713 109.743 24.5077 110.436 24.097C111.128 23.6863 111.679 23.106 112.088 22.3561C112.514 21.5883 112.727 20.7045 112.727 19.7046C112.727 18.7047 112.514 17.8298 112.088 17.0799C111.679 16.3121 111.128 15.7229 110.436 15.3122C109.743 14.9015 108.997 14.6962 108.198 14.6962C107.417 14.6962 106.679 14.9015 105.986 15.3122C105.294 15.7229 104.734 16.3121 104.308 17.0799C103.9 17.8298 103.695 18.7047 103.695 19.7046C103.695 20.7045 103.9 21.5883 104.308 22.3561C104.734 23.106 105.294 23.6863 105.986 24.097C106.679 24.5077 107.417 24.713 108.198 24.713ZM123.361 32.5604C121.763 32.5604 120.457 32.1764 119.445 31.4087C118.432 30.6409 117.749 29.7482 117.393 28.7304L119.498 27.8466C119.765 28.6322 120.236 29.2661 120.91 29.7482C121.603 30.2481 122.42 30.4981 123.361 30.4981C124.765 30.4981 125.839 30.0785 126.585 29.2393C127.349 28.418 127.731 27.2663 127.731 25.7843V24.3648H127.624C127.198 25.0433 126.585 25.6058 125.786 26.0521C124.987 26.4985 124.081 26.7217 123.068 26.7217C121.949 26.7217 120.91 26.4181 119.951 25.8111C118.992 25.204 118.228 24.3648 117.66 23.2935C117.092 22.2222 116.807 21.017 116.807 19.6778C116.807 18.3387 117.092 17.1334 117.66 16.0621C118.228 14.9908 118.992 14.1516 119.951 13.5445C120.91 12.9375 121.949 12.6339 123.068 12.6339C124.081 12.6339 124.987 12.8571 125.786 13.3035C126.585 13.7499 127.198 14.3123 127.624 14.9908H127.731V13.0624H129.889V25.8111C129.889 27.2752 129.605 28.5161 129.036 29.5339C128.468 30.5516 127.687 31.3105 126.692 31.8104C125.715 32.3104 124.605 32.5604 123.361 32.5604ZM123.415 24.6594C124.196 24.6594 124.916 24.463 125.573 24.0702C126.23 23.6595 126.754 23.0792 127.145 22.3293C127.553 21.5794 127.757 20.6956 127.757 19.6778C127.757 18.6601 127.553 17.7762 127.145 17.0263C126.754 16.2586 126.23 15.6782 125.573 15.2854C124.916 14.8926 124.196 14.6962 123.415 14.6962C122.634 14.6962 121.914 14.9015 121.257 15.3122C120.6 15.705 120.067 16.2764 119.658 17.0263C119.268 17.7762 119.072 18.6601 119.072 19.6778C119.072 20.6956 119.268 21.5794 119.658 22.3293C120.067 23.0792 120.6 23.6595 121.257 24.0702C121.914 24.463 122.634 24.6594 123.415 24.6594ZM133.217 7.17022H135.481V26.3467H133.217V7.17022ZM144.542 26.7753C143.264 26.7753 142.118 26.4717 141.106 25.8646C140.111 25.2576 139.33 24.4184 138.761 23.3471C138.192 22.2757 137.908 21.0616 137.908 19.7046C137.908 18.419 138.175 17.2406 138.708 16.1693C139.241 15.0801 139.996 14.2231 140.972 13.5981C141.967 12.9553 143.104 12.6339 144.383 12.6339C145.661 12.6339 146.78 12.9285 147.74 13.5178C148.716 14.0891 149.462 14.9015 149.978 15.955C150.493 17.0085 150.75 18.2226 150.75 19.5975C150.75 19.8475 150.733 20.026 150.697 20.1331H140.2C140.235 21.133 140.475 21.9811 140.919 22.6775C141.363 23.356 141.914 23.8649 142.571 24.2041C143.246 24.5433 143.939 24.713 144.649 24.713C146.318 24.713 147.606 23.8917 148.512 22.249L150.51 23.2131C149.942 24.2845 149.152 25.1505 148.139 25.8111C147.144 26.4539 145.945 26.7753 144.542 26.7753ZM148.352 18.2315C148.317 17.6959 148.166 17.1602 147.899 16.6246C147.633 16.0889 147.198 15.6336 146.594 15.2586C146.008 14.8837 145.253 14.6962 144.329 14.6962C143.334 14.6962 142.473 15.0176 141.745 15.6604C141.017 16.3032 140.555 17.1602 140.36 18.2315H148.352ZM159.948 7.17022H165.729C167.683 7.17022 169.389 7.58092 170.845 8.40224C172.302 9.20572 173.421 10.3306 174.202 11.7769C174.984 13.2231 175.374 14.8837 175.374 16.7585C175.374 18.6333 174.984 20.2938 174.202 21.7401C173.421 23.1864 172.302 24.3202 170.845 25.1415C169.389 25.945 167.683 26.3467 165.729 26.3467H159.948V7.17022ZM165.729 24.1773C167.986 24.1773 169.771 23.5256 171.085 22.2222C172.399 20.9188 173.056 19.0975 173.056 16.7585C173.056 14.4194 172.399 12.5982 171.085 11.2948C169.771 9.99137 167.986 9.33963 165.729 9.33963H162.213V24.1773H165.729ZM183.674 26.7753C182.396 26.7753 181.25 26.4717 180.237 25.8646C179.243 25.2576 178.461 24.4184 177.893 23.3471C177.324 22.2757 177.04 21.0616 177.04 19.7046C177.04 18.419 177.307 17.2406 177.84 16.1693C178.372 15.0801 179.127 14.2231 180.104 13.5981C181.098 12.9553 182.236 12.6339 183.515 12.6339C184.793 12.6339 185.912 12.9285 186.872 13.5178C187.848 14.0891 188.594 14.9015 189.11 15.955C189.624 17.0085 189.882 18.2226 189.882 19.5975C189.882 19.8475 189.864 20.026 189.829 20.1331H179.332C179.367 21.133 179.606 21.9811 180.051 22.6775C180.495 23.356 181.045 23.8649 181.703 24.2041C182.377 24.5433 183.07 24.713 183.781 24.713C185.45 24.713 186.738 23.8917 187.644 22.249L189.642 23.2131C189.074 24.2845 188.284 25.1505 187.271 25.8111C186.276 26.4539 185.077 26.7753 183.674 26.7753ZM187.484 18.2315C187.449 17.6959 187.298 17.1602 187.031 16.6246C186.765 16.0889 186.33 15.6336 185.726 15.2586C185.14 14.8837 184.385 14.6962 183.461 14.6962C182.466 14.6962 181.605 15.0176 180.877 15.6604C180.148 16.3032 179.686 17.1602 179.491 18.2315H187.484ZM190.682 13.0624H193.133L197.183 23.6685H197.236L201.339 13.0624H203.737L198.329 26.3467H196.037L190.682 13.0624ZM211.046 26.7753C209.767 26.7753 208.621 26.4717 207.609 25.8646C206.614 25.2576 205.833 24.4184 205.264 23.3471C204.696 22.2757 204.412 21.0616 204.412 19.7046C204.412 18.419 204.678 17.2406 205.211 16.1693C205.744 15.0801 206.499 14.2231 207.476 13.5981C208.47 12.9553 209.607 12.6339 210.886 12.6339C212.165 12.6339 213.284 12.9285 214.243 13.5178C215.22 14.0891 215.966 14.9015 216.481 15.955C216.996 17.0085 217.253 18.2226 217.253 19.5975C217.253 19.8475 217.236 20.026 217.2 20.1331H206.703C206.739 21.133 206.978 21.9811 207.422 22.6775C207.866 23.356 208.417 23.8649 209.074 24.2041C209.749 24.5433 210.442 24.713 211.152 24.713C212.822 24.713 214.11 23.8917 215.015 22.249L217.014 23.2131C216.445 24.2845 215.655 25.1505 214.642 25.8111C213.648 26.4539 212.449 26.7753 211.046 26.7753ZM214.856 18.2315C214.82 17.6959 214.669 17.1602 214.403 16.6246C214.136 16.0889 213.701 15.6336 213.097 15.2586C212.511 14.8837 211.756 14.6962 210.833 14.6962C209.838 14.6962 208.977 15.0176 208.248 15.6604C207.52 16.3032 207.058 17.1602 206.863 18.2315H214.856ZM219.806 7.17022H222.071V26.3467H219.806V7.17022ZM231.265 26.7753C229.969 26.7753 228.805 26.4717 227.775 25.8646C226.745 25.2397 225.936 24.3916 225.35 23.3203C224.782 22.2311 224.498 21.0259 224.498 19.7046C224.498 18.3833 224.782 17.187 225.35 16.1157C225.936 15.0265 226.745 14.1784 227.775 13.5713C228.805 12.9464 229.969 12.6339 231.265 12.6339C232.561 12.6339 233.725 12.9464 234.755 13.5713C235.803 14.1784 236.611 15.0265 237.18 16.1157C237.766 17.187 238.059 18.3833 238.059 19.7046C238.059 21.0259 237.766 22.2311 237.18 23.3203C236.611 24.3916 235.803 25.2397 234.755 25.8646C233.725 26.4717 232.561 26.7753 231.265 26.7753ZM231.265 24.713C232.064 24.713 232.81 24.5077 233.503 24.097C234.196 23.6863 234.746 23.106 235.155 22.3561C235.581 21.5883 235.794 20.7045 235.794 19.7046C235.794 18.7047 235.581 17.8298 235.155 17.0799C234.746 16.3121 234.196 15.7229 233.503 15.3122C232.81 14.9015 232.064 14.6962 231.265 14.6962C230.483 14.6962 229.746 14.9015 229.054 15.3122C228.361 15.7229 227.801 16.3121 227.375 17.0799C226.966 17.8298 226.762 18.7047 226.762 19.7046C226.762 20.7045 226.966 21.5883 227.375 22.3561C227.801 23.106 228.361 23.6863 229.054 24.097C229.746 24.5077 230.483 24.713 231.265 24.713ZM240.384 13.0624H242.542V15.0176H242.649C243.075 14.3391 243.688 13.7766 244.487 13.3303C245.286 12.866 246.21 12.6339 247.258 12.6339C248.394 12.6339 249.443 12.9464 250.402 13.5713C251.361 14.1784 252.124 15.0176 252.693 16.0889C253.262 17.1602 253.546 18.3655 253.546 19.7046C253.546 21.0437 253.262 22.249 252.693 23.3203C252.124 24.3916 251.361 25.2397 250.402 25.8646C249.443 26.4717 248.394 26.7753 247.258 26.7753C246.21 26.7753 245.277 26.5521 244.46 26.1057C243.661 25.6414 243.057 25.0612 242.649 24.3648H242.542L242.649 26.2128V32.1318H240.384V13.0624ZM246.912 24.713C247.693 24.713 248.413 24.5077 249.07 24.097C249.745 23.6863 250.278 23.106 250.668 22.3561C251.077 21.5883 251.281 20.7045 251.281 19.7046C251.281 18.7047 251.077 17.8298 250.668 17.0799C250.278 16.3121 249.745 15.7229 249.07 15.3122C248.413 14.9015 247.693 14.6962 246.912 14.6962C246.13 14.6962 245.402 14.9015 244.727 15.3122C244.07 15.705 243.537 16.2853 243.128 17.0531C242.738 17.803 242.542 18.6868 242.542 19.7046C242.542 20.7045 242.738 21.5883 243.128 22.3561C243.537 23.1238 244.07 23.7131 244.727 24.1238C245.402 24.5166 246.13 24.713 246.912 24.713ZM261.989 26.7753C260.711 26.7753 259.565 26.4717 258.553 25.8646C257.558 25.2576 256.777 24.4184 256.208 23.3471C255.64 22.2757 255.355 21.0616 255.355 19.7046C255.355 18.419 255.622 17.2406 256.155 16.1693C256.688 15.0801 257.443 14.2231 258.419 13.5981C259.414 12.9553 260.551 12.6339 261.83 12.6339C263.108 12.6339 264.227 12.9285 265.187 13.5178C266.164 14.0891 266.91 14.9015 267.425 15.955C267.94 17.0085 268.197 18.2226 268.197 19.5975C268.197 19.8475 268.18 20.026 268.144 20.1331H257.647C257.682 21.133 257.922 21.9811 258.366 22.6775C258.811 23.356 259.361 23.8649 260.018 24.2041C260.693 24.5433 261.386 24.713 262.096 24.713C263.766 24.713 265.053 23.8917 265.959 22.249L267.957 23.2131C267.39 24.2845 266.599 25.1505 265.586 25.8111C264.592 26.4539 263.393 26.7753 261.989 26.7753ZM265.799 18.2315C265.764 17.6959 265.613 17.1602 265.346 16.6246C265.08 16.0889 264.645 15.6336 264.041 15.2586C263.455 14.8837 262.7 14.6962 261.776 14.6962C260.782 14.6962 259.92 15.0176 259.192 15.6604C258.464 16.3032 258.002 17.1602 257.807 18.2315H265.799ZM270.75 13.0624H272.908V15.2319H273.014C273.263 14.4998 273.769 13.8927 274.533 13.4106C275.315 12.9107 276.087 12.6607 276.851 12.6607C277.402 12.6607 277.917 12.7411 278.396 12.9018V15.3658C277.917 15.0979 277.295 14.964 276.531 14.964C275.91 14.964 275.324 15.1515 274.773 15.5265C274.24 15.8836 273.814 16.3657 273.494 16.9727C273.174 17.5798 273.014 18.2405 273.014 18.9547V26.3467H270.75V13.0624ZM295.584 26.7753C293.79 26.7753 292.129 26.3378 290.602 25.4629C289.092 24.588 287.893 23.3828 287.005 21.8472C286.134 20.3116 285.7 18.6154 285.7 16.7585C285.7 14.9015 286.134 13.2053 287.005 11.6697C287.893 10.1342 289.092 8.92894 290.602 8.05406C292.129 7.17917 293.79 6.7417 295.584 6.7417C296.987 6.7417 298.302 6.99169 299.527 7.49162C300.77 7.99154 301.792 8.69685 302.591 9.60746L300.966 11.2412C300.362 10.4913 299.581 9.91991 298.621 9.52711C297.68 9.11642 296.667 8.91111 295.584 8.91111C294.252 8.91111 293 9.24145 291.827 9.90207C290.673 10.5449 289.74 11.4644 289.03 12.6607C288.337 13.8392 287.991 15.2051 287.991 16.7585C287.991 18.3119 288.337 19.6868 289.03 20.883C289.74 22.0615 290.673 22.9811 291.827 23.6417C293 24.2845 294.252 24.6059 295.584 24.6059C296.863 24.6059 297.929 24.4094 298.781 24.0166C299.651 23.6059 300.407 23.0703 301.046 22.4097C301.507 21.9097 301.88 21.3026 302.165 20.5884C302.449 19.8742 302.618 19.0975 302.671 18.2583H295.637V16.1425H304.803C304.891 16.6424 304.936 17.1067 304.936 17.5352C304.936 18.7136 304.749 19.8653 304.376 20.9902C304.003 22.0972 303.408 23.0703 302.591 23.9095C300.797 25.82 298.462 26.7753 295.584 26.7753ZM307.254 13.0624H309.412V15.2319H309.518C309.767 14.4998 310.273 13.8927 311.037 13.4106C311.819 12.9107 312.591 12.6607 313.355 12.6607C313.906 12.6607 314.421 12.7411 314.9 12.9018V15.3658C314.421 15.0979 313.799 14.964 313.035 14.964C312.414 14.964 311.828 15.1515 311.277 15.5265C310.744 15.8836 310.318 16.3657 309.998 16.9727C309.678 17.5798 309.518 18.2405 309.518 18.9547V26.3467H307.254V13.0624ZM322.226 26.7753C320.929 26.7753 319.766 26.4717 318.736 25.8646C317.705 25.2397 316.897 24.3916 316.311 23.3203C315.742 22.2311 315.458 21.0259 315.458 19.7046C315.458 18.3833 315.742 17.187 316.311 16.1157C316.897 15.0265 317.705 14.1784 318.736 13.5713C319.766 12.9464 320.929 12.6339 322.226 12.6339C323.522 12.6339 324.685 12.9464 325.716 13.5713C326.763 14.1784 327.572 15.0265 328.14 16.1157C328.727 17.187 329.02 18.3833 329.02 19.7046C329.02 21.0259 328.727 22.2311 328.14 23.3203C327.572 24.3916 326.763 25.2397 325.716 25.8646C324.685 26.4717 323.522 26.7753 322.226 26.7753ZM322.226 24.713C323.025 24.713 323.771 24.5077 324.464 24.097C325.156 23.6863 325.707 23.106 326.116 22.3561C326.542 21.5883 326.755 20.7045 326.755 19.7046C326.755 18.7047 326.542 17.8298 326.116 17.0799C325.707 16.3121 325.156 15.7229 324.464 15.3122C323.771 14.9015 323.025 14.6962 322.226 14.6962C321.444 14.6962 320.707 14.9015 320.014 15.3122C319.322 15.7229 318.762 16.3121 318.336 17.0799C317.927 17.8298 317.723 18.7047 317.723 19.7046C317.723 20.7045 317.927 21.5883 318.336 22.3561C318.762 23.106 319.322 23.6863 320.014 24.097C320.707 24.5077 321.444 24.713 322.226 24.713ZM336.327 26.7753C334.693 26.7753 333.45 26.3021 332.597 25.3558C331.762 24.4094 331.345 23.0971 331.345 21.4187V13.0624H333.609V21.0437C333.609 23.4899 334.702 24.713 336.886 24.713C337.614 24.713 338.263 24.5077 338.831 24.097C339.418 23.6863 339.861 23.1506 340.164 22.49C340.483 21.8294 340.643 21.133 340.643 20.4009V13.0624H342.881V26.3467H340.75V24.3648H340.643C340.252 25.0433 339.657 25.6147 338.858 26.0789C338.076 26.5432 337.233 26.7753 336.327 26.7753ZM346.097 13.0624H348.255V15.0176H348.362C348.788 14.3391 349.401 13.7766 350.2 13.3303C350.999 12.866 351.923 12.6339 352.971 12.6339C354.107 12.6339 355.156 12.9464 356.115 13.5713C357.074 14.1784 357.837 15.0176 358.406 16.0889C358.974 17.1602 359.259 18.3655 359.259 19.7046C359.259 21.0437 358.974 22.249 358.406 23.3203C357.837 24.3916 357.074 25.2397 356.115 25.8646C355.156 26.4717 354.107 26.7753 352.971 26.7753C351.923 26.7753 350.99 26.5521 350.173 26.1057C349.374 25.6414 348.77 25.0612 348.362 24.3648H348.255L348.362 26.2128V32.1318H346.097V13.0624ZM352.625 24.713C353.406 24.713 354.125 24.5077 354.783 24.097C355.457 23.6863 355.99 23.106 356.381 22.3561C356.789 21.5883 356.994 20.7045 356.994 19.7046C356.994 18.7047 356.789 17.8298 356.381 17.0799C355.99 16.3121 355.457 15.7229 354.783 15.3122C354.125 14.9015 353.406 14.6962 352.625 14.6962C351.843 14.6962 351.114 14.9015 350.44 15.3122C349.782 15.705 349.249 16.2853 348.841 17.0531C348.45 17.803 348.255 18.6868 348.255 19.7046C348.255 20.7045 348.45 21.5883 348.841 22.3561C349.249 23.1238 349.782 23.7131 350.44 24.1238C351.114 24.5166 351.843 24.713 352.625 24.713ZM366.347 26.7753C364.944 26.7753 363.754 26.4181 362.777 25.7039C361.8 24.9898 361.116 24.1059 360.725 23.0524L362.724 22.1686C363.079 23.0078 363.576 23.6506 364.216 24.097C364.872 24.5433 365.583 24.7666 366.347 24.7666C367.2 24.7666 367.901 24.5791 368.452 24.2041C369.02 23.8292 369.304 23.3738 369.304 22.8382C369.304 22.3204 369.091 21.8918 368.665 21.5526C368.256 21.2134 367.546 20.9188 366.533 20.6688L364.722 20.2135C363.727 19.9814 362.874 19.5617 362.164 18.9547C361.471 18.3476 361.125 17.5441 361.125 16.5442C361.125 15.7229 361.356 15.0176 361.818 14.4284C362.297 13.8392 362.928 13.3928 363.709 13.0892C364.491 12.7857 365.344 12.6339 366.267 12.6339C367.404 12.6339 368.434 12.9018 369.358 13.4374C370.299 13.9552 370.965 14.6962 371.356 15.6604L369.358 16.5174C369.074 15.8746 368.638 15.4015 368.052 15.0979C367.483 14.7944 366.844 14.6426 366.134 14.6426C365.441 14.6426 364.811 14.8123 364.242 15.1515C363.692 15.4907 363.416 15.9282 363.416 16.4639C363.416 16.9281 363.594 17.2941 363.949 17.562C364.322 17.8298 364.908 18.0708 365.708 18.2851L367.679 18.7672C368.994 19.1064 369.97 19.6153 370.61 20.2938C371.267 20.9544 371.596 21.749 371.596 22.6775C371.596 23.4452 371.373 24.1416 370.93 24.7666C370.486 25.3915 369.864 25.8825 369.064 26.2396C368.265 26.5967 367.359 26.7753 366.347 26.7753Z" fill="white"/>
<path d="M70.4088 48.8181C69.2931 48.8181 68.2755 48.5514 67.3547 48.0179C66.4339 47.4844 65.7087 46.7495 65.1777 45.8132C64.6579 44.8769 64.3979 43.8426 64.3979 42.7103C64.3979 41.5781 64.6579 40.5437 65.1777 39.6074C65.7087 38.6712 66.4339 37.9363 67.3547 37.4028C68.2755 36.8693 69.2931 36.6025 70.4088 36.6025C71.2861 36.6025 72.0821 36.7713 72.7969 37.1088C73.5228 37.4354 74.1453 37.9036 74.6652 38.5133L73.6905 39.4768C73.257 38.9433 72.7697 38.5513 72.2283 38.301C71.6974 38.0506 71.0912 37.9253 70.4088 37.9253C69.5751 37.9253 68.8057 38.1267 68.102 38.5296C67.3982 38.9215 66.8348 39.4822 66.4124 40.2117C66.0011 40.9303 65.7951 41.7631 65.7951 42.7103C65.7951 43.6575 66.0011 44.4958 66.4124 45.2253C66.8348 45.9439 67.3982 46.5045 68.102 46.9074C68.8057 47.2993 69.5751 47.4953 70.4088 47.4953C71.8274 47.4953 73.0296 46.9128 74.0154 45.7479L75.0064 46.7278C74.4754 47.3701 73.8152 47.8818 73.0244 48.2629C72.2335 48.6331 71.3621 48.8181 70.4088 48.8181ZM78.9826 48.8181C78.3978 48.8181 77.8669 48.7038 77.3906 48.4752C76.9246 48.2356 76.5562 47.909 76.2859 47.4953C76.0259 47.0707 75.896 46.5971 75.896 46.0745C75.896 45.2144 76.215 44.5448 76.8545 44.0658C77.5043 43.5868 78.3328 43.3472 79.34 43.3472C79.8378 43.3472 80.2875 43.4017 80.6884 43.5105C81.0887 43.6194 81.4084 43.7392 81.6469 43.8698V43.4452C81.6469 43.0533 81.5436 42.7049 81.3383 42.4C81.1433 42.0843 80.8775 41.8448 80.5422 41.6815C80.2063 41.5073 79.8437 41.4202 79.4538 41.4202C78.533 41.4202 77.8292 41.7958 77.3418 42.547L76.1884 41.7795C76.5237 41.2786 76.9682 40.8922 77.5205 40.62C78.0729 40.3369 78.6954 40.1954 79.3888 40.1954C80.4935 40.1954 81.3649 40.4947 82.0043 41.0936C82.6431 41.6924 82.9628 42.498 82.9628 43.5105V48.5568H81.6469V47.3647H81.5819C81.322 47.7784 80.9698 48.1268 80.526 48.4098C80.0815 48.6821 79.5675 48.8181 78.9826 48.8181ZM79.0964 47.5933C79.5291 47.5933 79.9411 47.479 80.331 47.2503C80.7209 47.0217 81.0348 46.7114 81.2733 46.3195C81.5222 45.9275 81.6469 45.5029 81.6469 45.0457C81.04 44.6537 80.3414 44.4577 79.5512 44.4577C78.8689 44.4577 78.3218 44.6156 77.9104 44.9313C77.5095 45.2362 77.3093 45.6282 77.3093 46.1072C77.3093 46.5427 77.488 46.902 77.8454 47.185C78.2028 47.4572 78.6194 47.5933 79.0964 47.5933ZM84.8545 36.8638H86.2353V48.5568H84.8545V36.8638ZM88.2498 36.8638H89.6307V48.5568H88.2498V36.8638ZM94.1808 48.8181C93.5959 48.8181 93.0657 48.7038 92.5887 48.4752C92.1234 48.2356 91.755 47.909 91.484 47.4953C91.224 47.0707 91.0941 46.5971 91.0941 46.0745C91.0941 45.2144 91.4138 44.5448 92.0526 44.0658C92.7024 43.5868 93.5309 43.3472 94.5382 43.3472C95.0366 43.3472 95.4863 43.4017 95.8866 43.5105C96.2875 43.6194 96.6072 43.7392 96.845 43.8698V43.4452C96.845 43.0533 96.7424 42.7049 96.5364 42.4C96.3414 42.0843 96.0763 41.8448 95.7403 41.6815C95.405 41.5073 95.0418 41.4202 94.6519 41.4202C93.7317 41.4202 93.0273 41.7958 92.5399 42.547L91.3865 41.7795C91.7225 41.2786 92.1663 40.8922 92.7187 40.62C93.271 40.3369 93.8942 40.1954 94.5869 40.1954C95.6916 40.1954 96.5637 40.4947 97.2024 41.0936C97.8419 41.6924 98.1609 42.498 98.1609 43.5105V48.5568H96.845V47.3647H96.7801C96.5201 47.7784 96.1686 48.1268 95.7241 48.4098C95.2803 48.6821 94.7656 48.8181 94.1808 48.8181ZM94.2945 47.5933C94.7279 47.5933 95.1393 47.479 95.5291 47.2503C95.919 47.0217 96.2336 46.7114 96.4714 46.3195C96.7209 45.9275 96.845 45.5029 96.845 45.0457C96.2388 44.6537 95.5402 44.4577 94.7494 44.4577C94.067 44.4577 93.5205 44.6156 93.1085 44.9313C92.7083 45.2362 92.5075 45.6282 92.5075 46.1072C92.5075 46.5427 92.6862 46.902 93.0436 47.185C93.401 47.4572 93.8182 47.5933 94.2945 47.5933ZM103.645 48.8181C102.855 48.8181 102.146 48.6331 101.517 48.2629C100.889 47.8818 100.396 47.3647 100.039 46.7114C99.6926 46.0473 99.5191 45.3124 99.5191 44.5067C99.5191 43.7011 99.6926 42.9716 100.039 42.3184C100.396 41.6542 100.889 41.1371 101.517 40.7669C102.146 40.3859 102.855 40.1954 103.645 40.1954C104.436 40.1954 105.145 40.3859 105.774 40.7669C106.412 41.1371 106.906 41.6542 107.252 42.3184C107.609 42.9716 107.788 43.7011 107.788 44.5067C107.788 45.3124 107.609 46.0473 107.252 46.7114C106.906 47.3647 106.412 47.8818 105.774 48.2629C105.145 48.6331 104.436 48.8181 103.645 48.8181ZM103.645 47.5606C104.133 47.5606 104.588 47.4354 105.01 47.185C105.432 46.9346 105.768 46.5808 106.017 46.1235C106.277 45.6553 106.407 45.1164 106.407 44.5067C106.407 43.8971 106.277 43.3636 106.017 42.9063C105.768 42.4381 105.432 42.0788 105.01 41.8285C104.588 41.5781 104.133 41.4528 103.645 41.4528C103.169 41.4528 102.719 41.5781 102.297 41.8285C101.875 42.0788 101.534 42.4381 101.274 42.9063C101.025 43.3636 100.9 43.8971 100.9 44.5067C100.9 45.1164 101.025 45.6553 101.274 46.1235C101.534 46.5808 101.875 46.9346 102.297 47.185C102.719 47.4354 103.169 47.5606 103.645 47.5606Z" fill="white"/>
</svg>
