<svg width="1286" height="144" viewBox="0 0 1286 144" fill="none" xmlns="http://www.w3.org/2000/svg">
<path d="M0.27 75.12C0.27 61.9467 3.12 50.23 8.82 39.97C14.52 29.5833 22.4367 21.54 32.57 15.84C42.83 10.0133 54.42 7.09999 67.34 7.09999C83.1733 7.09999 96.7267 11.28 108 19.64C119.273 28 126.81 39.4 130.61 53.84H94.89C92.23 48.2667 88.43 44.0233 83.49 41.11C78.6767 38.1967 73.1667 36.74 66.96 36.74C56.9533 36.74 48.8467 40.2233 42.64 47.19C36.4333 54.1567 33.33 63.4667 33.33 75.12C33.33 86.7733 36.4333 96.0833 42.64 103.05C48.8467 110.017 56.9533 113.5 66.96 113.5C73.1667 113.5 78.6767 112.043 83.49 109.13C88.43 106.217 92.23 101.973 94.89 96.4H130.61C126.81 110.84 119.273 122.24 108 130.6C96.7267 138.833 83.1733 142.95 67.34 142.95C54.42 142.95 42.83 140.1 32.57 134.4C22.4367 128.573 14.52 120.53 8.82 110.27C3.12 100.01 0.27 88.2933 0.27 75.12ZM198.767 143.52C188.38 143.52 179.007 141.303 170.647 136.87C162.413 132.437 155.89 126.103 151.077 117.87C146.39 109.637 144.047 100.01 144.047 88.99C144.047 78.0967 146.453 68.5333 151.267 60.3C156.08 51.94 162.667 45.5433 171.027 41.11C179.387 36.6767 188.76 34.46 199.147 34.46C209.533 34.46 218.907 36.6767 227.267 41.11C235.627 45.5433 242.213 51.94 247.027 60.3C251.84 68.5333 254.247 78.0967 254.247 88.99C254.247 99.8833 251.777 109.51 246.837 117.87C242.023 126.103 235.373 132.437 226.887 136.87C218.527 141.303 209.153 143.52 198.767 143.52ZM198.767 115.4C204.973 115.4 210.23 113.12 214.537 108.56C218.97 104 221.187 97.4767 221.187 88.99C221.187 80.5033 219.033 73.98 214.727 69.42C210.547 64.86 205.353 62.58 199.147 62.58C192.813 62.58 187.557 64.86 183.377 69.42C179.197 73.8533 177.107 80.3767 177.107 88.99C177.107 97.4767 179.133 104 183.187 108.56C187.367 113.12 192.56 115.4 198.767 115.4ZM265.023 88.8C265.023 77.9067 267.05 68.3433 271.103 60.11C275.283 51.8767 280.92 45.5433 288.013 41.11C295.106 36.6767 303.023 34.46 311.763 34.46C318.73 34.46 325.063 35.9167 330.763 38.83C336.59 41.7433 341.15 45.67 344.443 50.61V1.4H376.933V142H344.443V126.8C341.403 131.867 337.033 135.92 331.333 138.96C325.76 142 319.236 143.52 311.763 143.52C303.023 143.52 295.106 141.303 288.013 136.87C280.92 132.31 275.283 125.913 271.103 117.68C267.05 109.32 265.023 99.6933 265.023 88.8ZM344.443 88.99C344.443 80.8833 342.163 74.4867 337.603 69.8C333.17 65.1133 327.723 62.77 321.263 62.77C314.803 62.77 309.293 65.1133 304.733 69.8C300.3 74.36 298.083 80.6933 298.083 88.8C298.083 96.9067 300.3 103.367 304.733 108.18C309.293 112.867 314.803 115.21 321.263 115.21C327.723 115.21 333.17 112.867 337.603 108.18C342.163 103.493 344.443 97.0967 344.443 88.99ZM500.378 87.28C500.378 90.32 500.188 93.4867 499.808 96.78H426.278C426.785 103.367 428.875 108.433 432.548 111.98C436.348 115.4 440.972 117.11 446.418 117.11C454.525 117.11 460.162 113.69 463.328 106.85H497.908C496.135 113.817 492.905 120.087 488.218 125.66C483.658 131.233 477.895 135.603 470.928 138.77C463.962 141.937 456.172 143.52 447.558 143.52C437.172 143.52 427.925 141.303 419.818 136.87C411.712 132.437 405.378 126.103 400.818 117.87C396.258 109.637 393.978 100.01 393.978 88.99C393.978 77.97 396.195 68.3433 400.628 60.11C405.188 51.8767 411.522 45.5433 419.628 41.11C427.735 36.6767 437.045 34.46 447.558 34.46C457.818 34.46 466.938 36.6133 474.918 40.92C482.898 45.2267 489.105 51.37 493.538 59.35C498.098 67.33 500.378 76.64 500.378 87.28ZM467.128 78.73C467.128 73.1567 465.228 68.7233 461.428 65.43C457.628 62.1367 452.878 60.49 447.178 60.49C441.732 60.49 437.108 62.0733 433.308 65.24C429.635 68.4067 427.355 72.9033 426.468 78.73H467.128ZM580.598 143.33C568.058 143.33 556.532 140.417 546.018 134.59C535.632 128.763 527.335 120.657 521.128 110.27C515.048 99.7567 512.008 87.9767 512.008 74.93C512.008 61.8833 515.048 50.1667 521.128 39.78C527.335 29.3933 535.632 21.2867 546.018 15.46C556.532 9.63333 568.058 6.72 580.598 6.72C593.138 6.72 604.602 9.63333 614.988 15.46C625.502 21.2867 633.735 29.3933 639.688 39.78C645.768 50.1667 648.808 61.8833 648.808 74.93C648.808 87.9767 645.768 99.7567 639.688 110.27C633.608 120.657 625.375 128.763 614.988 134.59C604.602 140.417 593.138 143.33 580.598 143.33ZM580.598 113.69C591.238 113.69 599.725 110.143 606.058 103.05C612.518 95.9567 615.748 86.5833 615.748 74.93C615.748 63.15 612.518 53.7767 606.058 46.81C599.725 39.7167 591.238 36.17 580.598 36.17C569.832 36.17 561.218 39.6533 554.758 46.62C548.425 53.5867 545.258 63.0233 545.258 74.93C545.258 86.71 548.425 96.1467 554.758 103.24C561.218 110.207 569.832 113.69 580.598 113.69ZM731.484 34.84C743.897 34.84 753.777 38.8933 761.124 47C768.597 54.98 772.334 66 772.334 80.06V142H740.034V84.43C740.034 77.3367 738.197 71.8267 734.524 67.9C730.85 63.9733 725.91 62.01 719.704 62.01C713.497 62.01 708.557 63.9733 704.884 67.9C701.21 71.8267 699.374 77.3367 699.374 84.43V142H666.884V35.98H699.374V50.04C702.667 45.3533 707.1 41.68 712.674 39.02C718.247 36.2333 724.517 34.84 731.484 34.84ZM830.805 115.97C835.111 112.55 837.075 110.967 836.695 111.22C849.108 100.96 858.861 92.5367 865.955 85.95C873.175 79.3633 879.255 72.46 884.195 65.24C889.135 58.02 891.605 50.99 891.605 44.15C891.605 38.9567 890.401 34.9033 887.995 31.99C885.588 29.0767 881.978 27.62 877.165 27.62C872.351 27.62 868.551 29.4567 865.765 33.13C863.105 36.6767 861.775 41.7433 861.775 48.33H830.425C830.678 37.5633 832.958 28.57 837.265 21.35C841.698 14.13 847.461 8.80999 854.555 5.38999C861.775 1.96999 869.755 0.25999 878.495 0.25999C893.568 0.25999 904.905 4.12332 912.505 11.85C920.231 19.5767 924.095 29.6467 924.095 42.06C924.095 55.6133 919.471 68.2167 910.225 79.87C900.978 91.3967 889.198 102.67 874.885 113.69H926.185V140.1H830.805V115.97ZM940.489 70.75C940.489 48.9633 944.669 31.8 953.029 19.26C961.516 6.71999 975.133 0.449988 993.879 0.449988C1012.63 0.449988 1026.18 6.71999 1034.54 19.26C1043.03 31.8 1047.27 48.9633 1047.27 70.75C1047.27 92.79 1043.03 110.08 1034.54 122.62C1026.18 135.16 1012.63 141.43 993.879 141.43C975.133 141.43 961.516 135.16 953.029 122.62C944.669 110.08 940.489 92.79 940.489 70.75ZM1015.35 70.75C1015.35 57.9567 1013.96 48.14 1011.17 41.3C1008.38 34.3333 1002.62 30.85 993.879 30.85C985.139 30.85 979.376 34.3333 976.589 41.3C973.803 48.14 972.409 57.9567 972.409 70.75C972.409 79.3633 972.916 86.52 973.929 92.22C974.943 97.7933 976.969 102.353 980.009 105.9C983.176 109.32 987.799 111.03 993.879 111.03C999.959 111.03 1004.52 109.32 1007.56 105.9C1010.73 102.353 1012.82 97.7933 1013.83 92.22C1014.84 86.52 1015.35 79.3633 1015.35 70.75ZM1063.29 115.97C1067.6 112.55 1069.56 110.967 1069.18 111.22C1081.6 100.96 1091.35 92.5367 1098.44 85.95C1105.66 79.3633 1111.74 72.46 1116.68 65.24C1121.62 58.02 1124.09 50.99 1124.09 44.15C1124.09 38.9567 1122.89 34.9033 1120.48 31.99C1118.08 29.0767 1114.47 27.62 1109.65 27.62C1104.84 27.62 1101.04 29.4567 1098.25 33.13C1095.59 36.6767 1094.26 41.7433 1094.26 48.33H1062.91C1063.17 37.5633 1065.45 28.57 1069.75 21.35C1074.19 14.13 1079.95 8.80999 1087.04 5.38999C1094.26 1.96999 1102.24 0.25999 1110.98 0.25999C1126.06 0.25999 1137.39 4.12332 1144.99 11.85C1152.72 19.5767 1156.58 29.6467 1156.58 42.06C1156.58 55.6133 1151.96 68.2167 1142.71 79.87C1133.47 91.3967 1121.69 102.67 1107.37 113.69H1158.67V140.1H1063.29V115.97ZM1173.74 117.3V91.08L1233.78 5.19999H1270.07V89.18H1285.65V117.3H1270.07V142H1237.58V117.3H1173.74ZM1239.86 40.92L1207.94 89.18H1239.86V40.92Z" fill="url(#paint0_linear_266_6)"/>
<defs>
<linearGradient id="paint0_linear_266_6" x1="162.241" y1="-74.4388" x2="1072.77" y2="580.234" gradientUnits="userSpaceOnUse">
<stop stop-color="#FFA800"/>
<stop offset="0.286121" stop-color="#FF7A00"/>
<stop offset="0.699224" stop-color="#E16C01"/>
<stop offset="0.928689" stop-color="#A24D00"/>
</linearGradient>
</defs>
</svg>
