<svg width="410" height="70" viewBox="0 0 410 70" fill="none" xmlns="http://www.w3.org/2000/svg">
<g clip-path="url(#clip0_58_153)">
<mask id="mask0_58_153" style="mask-type:luminance" maskUnits="userSpaceOnUse" x="0" y="0" width="410" height="70">
<path d="M410 0H0V70H410V0Z" fill="white"/>
</mask>
<g mask="url(#mask0_58_153)">
<path d="M66.46 9.48781H73.33C75.55 9.48781 77.49 9.93781 79.15 10.8378C80.81 11.7378 82.08 13.0078 82.96 14.6478C83.86 16.2678 84.31 18.1278 84.31 20.2278C84.31 22.3278 83.86 24.1978 82.96 25.8378C82.08 27.4578 80.81 28.7178 79.15 29.6178C77.49 30.5178 75.55 30.9678 73.33 30.9678H66.46V9.48781ZM73.27 27.7578C75.67 27.7578 77.54 27.0978 78.88 25.7778C80.24 24.4378 80.92 22.5878 80.92 20.2278C80.92 17.8878 80.24 16.0478 78.88 14.7078C77.54 13.3678 75.67 12.6978 73.27 12.6978H69.82V27.7578H73.27ZM94.15 31.4478C92.6502 31.4478 91.3002 31.0978 90.1002 30.3978C88.9202 29.6978 87.9902 28.7378 87.3102 27.5178C86.6502 26.2778 86.3202 24.8878 86.3202 23.3478C86.3202 21.8878 86.6402 20.5378 87.2802 19.2978C87.9402 18.0378 88.8502 17.0378 90.0102 16.2978C91.1702 15.5578 92.4902 15.1878 93.97 15.1878C95.51 15.1878 96.84 15.5278 97.96 16.2078C99.1 16.8878 99.96 17.8178 100.54 18.9978C101.14 20.1778 101.44 21.5078 101.44 22.9878C101.44 23.2678 101.41 23.6178 101.35 24.0378H89.6202C89.7402 25.4578 90.2402 26.5578 91.1202 27.3378C92.0202 28.0978 93.06 28.4778 94.24 28.4778C95.18 28.4778 95.99 28.2678 96.67 27.8478C97.37 27.4078 97.93 26.8178 98.35 26.0778L101.14 27.3978C100.42 28.6578 99.48 29.6478 98.32 30.3678C97.16 31.0878 95.77 31.4478 94.15 31.4478ZM98.08 21.5178C98.04 20.9778 97.87 20.4478 97.57 19.9278C97.27 19.3878 96.81 18.9378 96.19 18.5778C95.59 18.2178 94.85 18.0378 93.97 18.0378C92.9102 18.0378 92.0102 18.3578 91.2702 18.9978C90.5502 19.6178 90.0502 20.4578 89.7702 21.5178H98.08ZM102.442 15.6678H106.132L110.362 26.7078H110.482L114.802 15.6678H118.402L112.042 30.9678H108.742L102.442 15.6678ZM127.08 31.4478C125.58 31.4478 124.23 31.0978 123.03 30.3978C121.85 29.6978 120.92 28.7378 120.24 27.5178C119.58 26.2778 119.25 24.8878 119.25 23.3478C119.25 21.8878 119.57 20.5378 120.21 19.2978C120.87 18.0378 121.78 17.0378 122.94 16.2978C124.1 15.5578 125.42 15.1878 126.9 15.1878C128.44 15.1878 129.77 15.5278 130.89 16.2078C132.03 16.8878 132.89 17.8178 133.47 18.9978C134.07 20.1778 134.37 21.5078 134.37 22.9878C134.37 23.2678 134.34 23.6178 134.28 24.0378H122.55C122.67 25.4578 123.17 26.5578 124.05 27.3378C124.95 28.0978 125.99 28.4778 127.17 28.4778C128.11 28.4778 128.92 28.2678 129.6 27.8478C130.3 27.4078 130.86 26.8178 131.28 26.0778L134.07 27.3978C133.35 28.6578 132.41 29.6478 131.25 30.3678C130.09 31.0878 128.7 31.4478 127.08 31.4478ZM131.01 21.5178C130.97 20.9778 130.8 20.4478 130.5 19.9278C130.2 19.3878 129.74 18.9378 129.12 18.5778C128.52 18.2178 127.78 18.0378 126.9 18.0378C125.84 18.0378 124.94 18.3578 124.2 18.9978C123.48 19.6178 122.98 20.4578 122.7 21.5178H131.01ZM137.375 9.48781H140.675V30.9678H137.375V9.48781ZM151.576 31.4478C150.036 31.4478 148.656 31.0978 147.436 30.3978C146.216 29.6778 145.266 28.6978 144.586 27.4578C143.906 26.2178 143.566 24.8378 143.566 23.3178C143.566 21.7978 143.906 20.4178 144.586 19.1778C145.266 17.9378 146.216 16.9678 147.436 16.2678C148.656 15.5478 150.036 15.1878 151.576 15.1878C153.116 15.1878 154.496 15.5478 155.716 16.2678C156.936 16.9878 157.886 17.9678 158.566 19.2078C159.246 20.4478 159.586 21.8178 159.586 23.3178C159.586 24.8378 159.246 26.2178 158.566 27.4578C157.886 28.6978 156.936 29.6778 155.716 30.3978C154.496 31.0978 153.116 31.4478 151.576 31.4478ZM151.576 28.4178C152.416 28.4178 153.196 28.2178 153.916 27.8178C154.636 27.3978 155.206 26.8078 155.626 26.0478C156.066 25.2678 156.286 24.3578 156.286 23.3178C156.286 22.2778 156.066 21.3778 155.626 20.6178C155.206 19.8578 154.636 19.2778 153.916 18.8778C153.196 18.4578 152.416 18.2478 151.576 18.2478C150.736 18.2478 149.956 18.4578 149.236 18.8778C148.516 19.2778 147.936 19.8578 147.496 20.6178C147.076 21.3778 146.866 22.2778 146.866 23.3178C146.866 24.3578 147.076 25.2678 147.496 26.0478C147.936 26.8078 148.516 27.3978 149.236 27.8178C149.956 28.2178 150.736 28.4178 151.576 28.4178ZM162.363 15.6678H165.513V17.6778H165.663C166.103 16.9778 166.753 16.3878 167.613 15.9078C168.473 15.4278 169.443 15.1878 170.523 15.1878C171.903 15.1878 173.153 15.5378 174.273 16.2378C175.393 16.9378 176.273 17.9078 176.913 19.1478C177.573 20.3678 177.903 21.7578 177.903 23.3178C177.903 24.8778 177.573 26.2778 176.913 27.5178C176.273 28.7378 175.393 29.6978 174.273 30.3978C173.153 31.0978 171.903 31.4478 170.523 31.4478C169.443 31.4478 168.473 31.2078 167.613 30.7278C166.753 30.2478 166.103 29.6678 165.663 28.9878H165.513L165.663 31.1178V37.4478H162.363V15.6678ZM170.043 28.4178C170.843 28.4178 171.593 28.2078 172.293 27.7878C172.993 27.3678 173.553 26.7678 173.973 25.9878C174.393 25.2078 174.603 24.3178 174.603 23.3178C174.603 22.3178 174.393 21.4378 173.973 20.6778C173.553 19.8978 172.993 19.2978 172.293 18.8778C171.593 18.4578 170.843 18.2478 170.043 18.2478C169.243 18.2478 168.493 18.4578 167.793 18.8778C167.113 19.2978 166.563 19.8978 166.143 20.6778C165.723 21.4378 165.513 22.3178 165.513 23.3178C165.513 24.3178 165.723 25.2078 166.143 25.9878C166.563 26.7678 167.113 27.3678 167.793 27.7878C168.493 28.2078 169.243 28.4178 170.043 28.4178ZM187.9 31.4478C186.4 31.4478 185.05 31.0978 183.85 30.3978C182.67 29.6978 181.74 28.7378 181.06 27.5178C180.4 26.2778 180.07 24.8878 180.07 23.3478C180.07 21.8878 180.39 20.5378 181.03 19.2978C181.69 18.0378 182.6 17.0378 183.76 16.2978C184.92 15.5578 186.24 15.1878 187.72 15.1878C189.26 15.1878 190.59 15.5278 191.71 16.2078C192.85 16.8878 193.71 17.8178 194.29 18.9978C194.89 20.1778 195.19 21.5078 195.19 22.9878C195.19 23.2678 195.16 23.6178 195.1 24.0378H183.37C183.49 25.4578 183.99 26.5578 184.87 27.3378C185.77 28.0978 186.81 28.4778 187.99 28.4778C188.93 28.4778 189.74 28.2678 190.42 27.8478C191.12 27.4078 191.68 26.8178 192.1 26.0778L194.89 27.3978C194.17 28.6578 193.23 29.6478 192.07 30.3678C190.91 31.0878 189.52 31.4478 187.9 31.4478ZM191.83 21.5178C191.79 20.9778 191.62 20.4478 191.32 19.9278C191.02 19.3878 190.56 18.9378 189.94 18.5778C189.34 18.2178 188.6 18.0378 187.72 18.0378C186.66 18.0378 185.76 18.3578 185.02 18.9978C184.3 19.6178 183.8 20.4578 183.52 21.5178H191.83ZM198.195 15.6678H201.345V17.9178H201.495C201.835 17.1378 202.425 16.4978 203.265 15.9978C204.105 15.4778 204.995 15.2178 205.935 15.2178C206.675 15.2178 207.295 15.3178 207.795 15.5178V18.9378C206.915 18.6178 206.125 18.4578 205.425 18.4578C204.665 18.4578 203.985 18.6578 203.385 19.0578C202.805 19.4578 202.345 19.9978 202.005 20.6778C201.665 21.3378 201.495 22.0678 201.495 22.8678V30.9678H198.195V15.6678ZM223.197 31.4478C221.417 31.4478 219.817 30.9278 218.397 29.8878C216.977 28.8478 215.997 27.3878 215.457 25.5078L218.637 24.2178C218.957 25.3978 219.517 26.3678 220.317 27.1278C221.137 27.8678 222.117 28.2378 223.257 28.2378C224.317 28.2378 225.217 27.9678 225.957 27.4278C226.697 26.8678 227.067 26.1078 227.067 25.1478C227.067 24.2678 226.737 23.5478 226.077 22.9878C225.437 22.4078 224.307 21.8278 222.687 21.2478L221.337 20.7678C219.897 20.2678 218.687 19.5478 217.707 18.6078C216.727 17.6678 216.237 16.4278 216.237 14.8878C216.237 13.8278 216.527 12.8478 217.107 11.9478C217.687 11.0478 218.487 10.3378 219.507 9.81781C220.547 9.27781 221.717 9.00781 223.017 9.00781C224.897 9.00781 226.397 9.46781 227.517 10.3878C228.637 11.2878 229.387 12.3078 229.767 13.4478L226.737 14.7378C226.517 14.0578 226.097 13.4578 225.477 12.9378C224.857 12.4178 224.057 12.1578 223.077 12.1578C222.097 12.1578 221.267 12.4078 220.587 12.9078C219.927 13.4078 219.597 14.0478 219.597 14.8278C219.597 15.5678 219.897 16.1778 220.497 16.6578C221.097 17.1378 222.037 17.5978 223.317 18.0378L224.667 18.4878C226.507 19.1278 227.927 19.9678 228.927 21.0078C229.947 22.0278 230.457 23.3978 230.457 25.1178C230.457 26.5178 230.097 27.6978 229.377 28.6578C228.657 29.5978 227.737 30.2978 226.617 30.7578C225.517 31.2178 224.377 31.4478 223.197 31.4478ZM239.27 31.2078C238.59 31.2078 237.95 31.0978 237.35 30.8778C236.75 30.6578 236.26 30.3678 235.88 30.0078C235.02 29.1478 234.59 27.9778 234.59 26.4978V18.5778H231.92V15.6678H234.59V11.3478H237.89V15.6678H241.61V18.5778H237.89V25.7778C237.89 26.5978 238.05 27.1778 238.37 27.5178C238.67 27.9178 239.19 28.1178 239.93 28.1178C240.27 28.1178 240.57 28.0778 240.83 27.9978C241.09 27.8978 241.37 27.7478 241.67 27.5478V30.7578C241.01 31.0578 240.21 31.2078 239.27 31.2078ZM250.328 31.4478C248.468 31.4478 247.048 30.8978 246.068 29.7978C245.108 28.6778 244.628 27.1278 244.628 25.1478V15.6678H247.928V24.6978C247.928 25.9378 248.218 26.8678 248.798 27.4878C249.398 28.1078 250.178 28.4178 251.138 28.4178C251.918 28.4178 252.608 28.2178 253.208 27.8178C253.808 27.3978 254.268 26.8478 254.588 26.1678C254.908 25.4878 255.068 24.7578 255.068 23.9778V15.6678H258.368V30.9678H255.248V28.9878H255.068C254.648 29.7078 253.998 30.2978 253.118 30.7578C252.238 31.2178 251.308 31.4478 250.328 31.4478ZM268.603 31.4478C267.223 31.4478 265.973 31.0978 264.853 30.3978C263.733 29.6978 262.843 28.7378 262.183 27.5178C261.543 26.2778 261.223 24.8778 261.223 23.3178C261.223 21.7578 261.543 20.3678 262.183 19.1478C262.843 17.9078 263.733 16.9378 264.853 16.2378C265.973 15.5378 267.223 15.1878 268.603 15.1878C269.683 15.1878 270.653 15.4278 271.513 15.9078C272.373 16.3878 273.023 16.9778 273.463 17.6778H273.613L273.463 15.5178V9.48781H276.763V30.9678H273.613V28.9878H273.463C273.023 29.6678 272.373 30.2478 271.513 30.7278C270.653 31.2078 269.683 31.4478 268.603 31.4478ZM269.083 28.4178C269.883 28.4178 270.623 28.2078 271.303 27.7878C272.003 27.3678 272.563 26.7678 272.983 25.9878C273.403 25.2078 273.613 24.3178 273.613 23.3178C273.613 22.3178 273.403 21.4378 272.983 20.6778C272.563 19.8978 272.003 19.2978 271.303 18.8778C270.623 18.4578 269.883 18.2478 269.083 18.2478C268.283 18.2478 267.533 18.4578 266.833 18.8778C266.133 19.2978 265.573 19.8978 265.153 20.6778C264.733 21.4378 264.523 22.3178 264.523 23.3178C264.523 24.3178 264.733 25.2078 265.153 25.9878C265.573 26.7678 266.133 27.3678 266.833 27.7878C267.533 28.2078 268.283 28.4178 269.083 28.4178ZM287.451 31.4478C285.951 31.4478 284.601 31.0978 283.401 30.3978C282.221 29.6978 281.291 28.7378 280.611 27.5178C279.951 26.2778 279.621 24.8878 279.621 23.3478C279.621 21.8878 279.941 20.5378 280.581 19.2978C281.241 18.0378 282.151 17.0378 283.311 16.2978C284.471 15.5578 285.791 15.1878 287.271 15.1878C288.811 15.1878 290.141 15.5278 291.261 16.2078C292.401 16.8878 293.261 17.8178 293.841 18.9978C294.441 20.1778 294.741 21.5078 294.741 22.9878C294.741 23.2678 294.711 23.6178 294.651 24.0378H282.921C283.041 25.4578 283.541 26.5578 284.421 27.3378C285.321 28.0978 286.361 28.4778 287.541 28.4778C288.481 28.4778 289.291 28.2678 289.971 27.8478C290.671 27.4078 291.231 26.8178 291.651 26.0778L294.441 27.3978C293.721 28.6578 292.781 29.6478 291.621 30.3678C290.461 31.0878 289.071 31.4478 287.451 31.4478ZM291.381 21.5178C291.341 20.9778 291.171 20.4478 290.871 19.9278C290.571 19.3878 290.111 18.9378 289.491 18.5778C288.891 18.2178 288.151 18.0378 287.271 18.0378C286.211 18.0378 285.311 18.3578 284.571 18.9978C283.851 19.6178 283.351 20.4578 283.071 21.5178H291.381ZM297.746 15.6678H300.896V17.6778H301.046C301.486 16.9578 302.136 16.3678 302.996 15.9078C303.876 15.4278 304.806 15.1878 305.786 15.1878C307.646 15.1878 309.056 15.7378 310.016 16.8378C310.996 17.9178 311.486 19.3978 311.486 21.2778V30.9678H308.186V21.7278C308.186 20.5278 307.886 19.6478 307.286 19.0878C306.706 18.5278 305.896 18.2478 304.856 18.2478C304.116 18.2478 303.456 18.4578 302.876 18.8778C302.296 19.2778 301.846 19.8178 301.526 20.4978C301.206 21.1778 301.046 21.9078 301.046 22.6878V30.9678H297.746V15.6678ZM320.715 31.2078C320.035 31.2078 319.395 31.0978 318.795 30.8778C318.195 30.6578 317.705 30.3678 317.325 30.0078C316.465 29.1478 316.035 27.9778 316.035 26.4978V18.5778H313.365V15.6678H316.035V11.3478H319.335V15.6678H323.055V18.5778H319.335V25.7778C319.335 26.5978 319.495 27.1778 319.815 27.5178C320.115 27.9178 320.635 28.1178 321.375 28.1178C321.715 28.1178 322.015 28.0778 322.275 27.9978C322.535 27.8978 322.815 27.7478 323.115 27.5478V30.7578C322.455 31.0578 321.655 31.2078 320.715 31.2078ZM343.319 31.4478C341.239 31.4478 339.339 30.9578 337.619 29.9778C335.899 28.9978 334.549 27.6478 333.569 25.9278C332.589 24.2078 332.099 22.3078 332.099 20.2278C332.099 18.1478 332.589 16.2478 333.569 14.5278C334.549 12.8078 335.899 11.4578 337.619 10.4778C339.339 9.49781 341.239 9.00781 343.319 9.00781C344.939 9.00781 346.409 9.30781 347.729 9.90781C349.069 10.5078 350.249 11.3778 351.269 12.5178L348.869 14.8278C348.129 13.9478 347.309 13.2978 346.409 12.8778C345.509 12.4378 344.479 12.2178 343.319 12.2178C341.879 12.2178 340.559 12.5478 339.359 13.2078C338.179 13.8678 337.239 14.8078 336.539 16.0278C335.839 17.2278 335.489 18.6278 335.489 20.2278C335.489 21.8278 335.839 23.2378 336.539 24.4578C337.239 25.6578 338.179 26.5878 339.359 27.2478C340.559 27.9078 341.879 28.2378 343.319 28.2378C345.719 28.2378 347.759 27.2378 349.439 25.2378L351.869 27.5778C350.829 28.7978 349.579 29.7478 348.119 30.4278C346.659 31.1078 345.059 31.4478 343.319 31.4478ZM354.787 9.48781H358.087V30.9678H354.787V9.48781ZM367.545 31.4478C365.685 31.4478 364.265 30.8978 363.285 29.7978C362.325 28.6778 361.845 27.1278 361.845 25.1478V15.6678H365.145V24.6978C365.145 25.9378 365.435 26.8678 366.015 27.4878C366.615 28.1078 367.395 28.4178 368.355 28.4178C369.135 28.4178 369.825 28.2178 370.425 27.8178C371.025 27.3978 371.485 26.8478 371.805 26.1678C372.125 25.4878 372.285 24.7578 372.285 23.9778V15.6678H375.585V30.9678H372.465V28.9878H372.285C371.865 29.7078 371.215 30.2978 370.335 30.7578C369.455 31.2178 368.525 31.4478 367.545 31.4478ZM387.586 31.4478C386.506 31.4478 385.536 31.2078 384.676 30.7278C383.816 30.2478 383.166 29.6678 382.726 28.9878H382.576V30.9678H379.426V9.48781H382.726V15.5178L382.576 17.6778H382.726C383.166 16.9778 383.816 16.3878 384.676 15.9078C385.536 15.4278 386.506 15.1878 387.586 15.1878C388.966 15.1878 390.216 15.5378 391.336 16.2378C392.456 16.9378 393.336 17.9078 393.976 19.1478C394.636 20.3678 394.966 21.7578 394.966 23.3178C394.966 24.8778 394.636 26.2778 393.976 27.5178C393.336 28.7378 392.456 29.6978 391.336 30.3978C390.216 31.0978 388.966 31.4478 387.586 31.4478ZM387.106 28.4178C387.906 28.4178 388.656 28.2078 389.356 27.7878C390.056 27.3678 390.616 26.7678 391.036 25.9878C391.456 25.2078 391.666 24.3178 391.666 23.3178C391.666 22.3178 391.456 21.4378 391.036 20.6778C390.616 19.8978 390.056 19.2978 389.356 18.8778C388.656 18.4578 387.906 18.2478 387.106 18.2478C386.306 18.2478 385.556 18.4578 384.856 18.8778C384.176 19.2978 383.626 19.8978 383.206 20.6778C382.786 21.4378 382.576 22.3178 382.576 23.3178C382.576 24.3178 382.786 25.2078 383.206 25.9878C383.626 26.7678 384.176 27.3678 384.856 27.7878C385.556 28.2078 386.306 28.4178 387.106 28.4178ZM403.404 31.4478C401.644 31.4478 400.204 31.0678 399.084 30.3078C397.964 29.5278 397.174 28.5378 396.714 27.3378L399.654 26.0478C400.014 26.8478 400.514 27.4578 401.154 27.8778C401.814 28.2978 402.564 28.5078 403.404 28.5078C404.224 28.5078 404.914 28.3678 405.474 28.0878C406.034 27.7878 406.314 27.3478 406.314 26.7678C406.314 26.2078 406.074 25.7678 405.594 25.4478C405.114 25.1278 404.374 24.8478 403.374 24.6078L401.544 24.1578C400.324 23.8578 399.314 23.3278 398.514 22.5678C397.714 21.8078 397.314 20.8478 397.314 19.6878C397.314 18.7878 397.574 17.9978 398.094 17.3178C398.634 16.6378 399.354 16.1178 400.254 15.7578C401.154 15.3778 402.134 15.1878 403.194 15.1878C404.614 15.1878 405.864 15.4778 406.944 16.0578C408.024 16.6178 408.804 17.4378 409.284 18.5178L406.404 19.7778C405.824 18.5978 404.764 18.0078 403.224 18.0078C402.484 18.0078 401.864 18.1578 401.364 18.4578C400.864 18.7578 400.614 19.1478 400.614 19.6278C400.614 20.0878 400.804 20.4678 401.184 20.7678C401.564 21.0478 402.124 21.2878 402.864 21.4878L405.114 22.0578C406.614 22.4378 407.744 23.0178 408.504 23.7978C409.284 24.5578 409.674 25.4978 409.674 26.6178C409.674 27.5778 409.394 28.4278 408.834 29.1678C408.294 29.8878 407.544 30.4478 406.584 30.8478C405.624 31.2478 404.564 31.4478 403.404 31.4478Z" fill="white"/>
<path d="M72.6 58.288C71.5733 58.288 70.66 58.0547 69.86 57.588C69.06 57.108 68.44 56.448 68 55.608C67.56 54.7547 67.34 53.7747 67.34 52.668V43.648H69.04V52.748C69.04 53.908 69.3467 54.8547 69.96 55.588C70.5733 56.308 71.4533 56.668 72.6 56.668C73.7467 56.668 74.6267 56.308 75.24 55.588C75.8667 54.8547 76.18 53.908 76.18 52.748V43.648H77.86V52.668C77.86 53.7747 77.6467 54.7547 77.22 55.608C76.8067 56.4613 76.2 57.1213 75.4 57.588C74.6133 58.0547 73.68 58.288 72.6 58.288ZM80.3069 47.768H81.9269V49.268H82.0069C82.2869 48.7613 82.7335 48.3347 83.3469 47.988C83.9602 47.628 84.6135 47.448 85.3069 47.448C86.5335 47.448 87.4669 47.808 88.1069 48.528C88.7602 49.2347 89.0869 50.2013 89.0869 51.428V57.968H87.3869V51.688C87.3869 50.7413 87.1602 50.0547 86.7069 49.628C86.2535 49.2013 85.6335 48.988 84.8469 48.988C84.3002 48.988 83.8069 49.1413 83.3669 49.448C82.9402 49.7547 82.6069 50.1613 82.3669 50.668C82.1269 51.1613 82.0069 51.6813 82.0069 52.228V57.968H80.3069V47.768ZM92.5178 45.888C92.1845 45.888 91.8978 45.768 91.6578 45.528C91.4178 45.288 91.2978 45.0013 91.2978 44.668C91.2978 44.3347 91.4178 44.0547 91.6578 43.828C91.8978 43.588 92.1845 43.468 92.5178 43.468C92.8511 43.468 93.138 43.588 93.378 43.828C93.618 44.0547 93.738 44.3347 93.738 44.668C93.738 45.0013 93.618 45.288 93.378 45.528C93.151 45.768 92.8645 45.888 92.5178 45.888ZM91.6778 47.768H93.358V57.968H91.6778V47.768ZM94.91 47.768H96.73L99.89 55.968H99.93L103.13 47.768H104.91L100.75 57.968H99.03L94.91 47.768ZM110.55 58.288C109.577 58.288 108.703 58.0547 107.93 57.588C107.157 57.1213 106.55 56.4813 106.11 55.668C105.683 54.8413 105.47 53.9147 105.47 52.888C105.47 51.9013 105.67 50.9947 106.07 50.168C106.483 49.3413 107.063 48.6813 107.81 48.188C108.557 47.6947 109.423 47.448 110.41 47.448C111.41 47.448 112.277 47.6747 113.01 48.128C113.743 48.568 114.303 49.1813 114.69 49.968C115.09 50.7547 115.29 51.6547 115.29 52.668C115.29 52.868 115.27 53.0413 115.23 53.188H107.17C107.21 53.9613 107.397 54.6147 107.73 55.148C108.063 55.6813 108.483 56.0813 108.99 56.348C109.51 56.6147 110.05 56.748 110.61 56.748C111.917 56.748 112.923 56.1347 113.63 54.908L115.07 55.608C114.63 56.4347 114.03 57.088 113.27 57.568C112.523 58.048 111.617 58.288 110.55 58.288ZM113.49 51.788C113.463 51.3613 113.343 50.9347 113.13 50.508C112.917 50.0813 112.577 49.7213 112.11 49.428C111.657 49.1347 111.083 48.988 110.39 48.988C109.59 48.988 108.91 49.248 108.35 49.768C107.803 50.2747 107.443 50.948 107.27 51.788H113.49ZM117.28 47.768H118.9V49.408H118.98C119.18 48.848 119.566 48.388 120.14 48.028C120.713 47.6547 121.313 47.468 121.94 47.468C122.406 47.468 122.806 47.5347 123.14 47.668V49.508C122.713 49.2947 122.233 49.188 121.7 49.188C121.206 49.188 120.753 49.328 120.34 49.608C119.926 49.888 119.593 50.268 119.34 50.748C119.1 51.2147 118.98 51.7213 118.98 52.268V57.968H117.28V47.768ZM127.949 58.288C126.856 58.288 125.942 58.0347 125.209 57.528C124.476 57.008 123.956 56.348 123.649 55.548L125.169 54.868C125.422 55.4813 125.796 55.9547 126.289 56.288C126.796 56.6213 127.349 56.788 127.949 56.788C128.589 56.788 129.136 56.6613 129.589 56.408C130.042 56.1413 130.269 55.768 130.269 55.288C130.269 54.8613 130.089 54.5213 129.729 54.268C129.369 54.0013 128.802 53.7747 128.029 53.588L126.789 53.268C125.976 53.068 125.309 52.728 124.789 52.248C124.269 51.768 124.009 51.148 124.009 50.388C124.009 49.8013 124.182 49.288 124.529 48.848C124.889 48.3947 125.362 48.048 125.949 47.808C126.536 47.568 127.169 47.448 127.849 47.448C128.742 47.448 129.536 47.6413 130.229 48.028C130.936 48.4147 131.436 48.9547 131.729 49.648L130.249 50.328C129.796 49.4213 128.989 48.968 127.829 48.968C127.269 48.968 126.776 49.1013 126.349 49.368C125.936 49.6213 125.729 49.948 125.729 50.348C125.729 50.7213 125.876 51.028 126.169 51.268C126.462 51.4947 126.902 51.6813 127.489 51.828L128.969 52.208C129.969 52.4613 130.722 52.8413 131.229 53.348C131.736 53.8413 131.989 54.448 131.989 55.168C131.989 55.7947 131.809 56.348 131.449 56.828C131.089 57.2947 130.602 57.6547 129.989 57.908C129.376 58.1613 128.696 58.288 127.949 58.288ZM134.744 45.888C134.411 45.888 134.124 45.768 133.884 45.528C133.644 45.288 133.524 45.0013 133.524 44.668C133.524 44.3347 133.644 44.0547 133.884 43.828C134.124 43.588 134.411 43.468 134.744 43.468C135.078 43.468 135.364 43.588 135.604 43.828C135.844 44.0547 135.964 44.3347 135.964 44.668C135.964 45.0013 135.844 45.288 135.604 45.528C135.378 45.768 135.091 45.888 134.744 45.888ZM133.904 47.768H135.584V57.968H133.904V47.768ZM142.478 58.288C141.572 58.288 140.745 58.0547 139.998 57.588C139.265 57.1213 138.685 56.4813 138.258 55.668C137.832 54.8413 137.618 53.908 137.618 52.868C137.618 51.8413 137.832 50.9147 138.258 50.088C138.685 49.2613 139.265 48.6147 139.998 48.148C140.745 47.6813 141.572 47.448 142.478 47.448C143.265 47.448 143.965 47.628 144.578 47.988C145.192 48.3347 145.658 48.768 145.978 49.288H146.058L145.978 47.868V43.648H147.678V57.968H146.058V56.468H145.978C145.658 56.9747 145.192 57.408 144.578 57.768C143.965 58.1147 143.265 58.288 142.478 58.288ZM142.678 56.748C143.278 56.748 143.832 56.588 144.338 56.268C144.858 55.948 145.272 55.4947 145.578 54.908C145.898 54.3213 146.058 53.6413 146.058 52.868C146.058 52.0947 145.898 51.4147 145.578 50.828C145.272 50.2413 144.858 49.788 144.338 49.468C143.832 49.148 143.278 48.988 142.678 48.988C142.092 48.988 141.538 49.148 141.018 49.468C140.498 49.788 140.078 50.248 139.758 50.848C139.452 51.4347 139.298 52.108 139.298 52.868C139.298 53.628 139.452 54.308 139.758 54.908C140.078 55.4947 140.498 55.948 141.018 56.268C141.538 56.588 142.092 56.748 142.678 56.748ZM153.352 58.288C152.605 58.288 151.939 58.1413 151.352 57.848C150.765 57.5547 150.312 57.1547 149.992 56.648C149.672 56.128 149.512 55.5413 149.512 54.888C149.512 53.808 149.919 52.968 150.732 52.368C151.545 51.7547 152.572 51.448 153.812 51.448C154.425 51.448 154.992 51.5147 155.512 51.648C156.045 51.7813 156.452 51.9347 156.732 52.108V51.488C156.732 50.728 156.465 50.1213 155.932 49.668C155.399 49.2013 154.725 48.968 153.912 48.968C153.339 48.968 152.812 49.0947 152.332 49.348C151.852 49.588 151.472 49.928 151.192 50.368L149.912 49.408C150.312 48.7947 150.859 48.3147 151.552 47.968C152.259 47.6213 153.039 47.448 153.892 47.448C155.279 47.448 156.365 47.8147 157.152 48.548C157.952 49.268 158.352 50.2547 158.352 51.508V57.968H156.732V56.508H156.652C156.359 57.0013 155.919 57.4213 155.332 57.768C154.745 58.1147 154.085 58.288 153.352 58.288ZM153.512 56.788C154.085 56.788 154.619 56.6413 155.112 56.348C155.605 56.0547 155.999 55.6613 156.292 55.168C156.585 54.6747 156.732 54.1347 156.732 53.548C156.412 53.3347 156.019 53.1613 155.552 53.028C155.085 52.8947 154.592 52.828 154.072 52.828C153.139 52.828 152.432 53.0213 151.952 53.408C151.485 53.7947 151.252 54.2947 151.252 54.908C151.252 55.468 151.465 55.9213 151.892 56.268C152.319 56.6147 152.859 56.788 153.512 56.788ZM164.939 58.288C164.033 58.288 163.206 58.0547 162.459 57.588C161.726 57.1213 161.146 56.4813 160.719 55.668C160.293 54.8413 160.079 53.908 160.079 52.868C160.079 51.8413 160.293 50.9147 160.719 50.088C161.146 49.2613 161.726 48.6147 162.459 48.148C163.206 47.6813 164.033 47.448 164.939 47.448C165.726 47.448 166.426 47.628 167.039 47.988C167.653 48.3347 168.119 48.768 168.439 49.288H168.519L168.439 47.868V43.648H170.139V57.968H168.519V56.468H168.439C168.119 56.9747 167.653 57.408 167.039 57.768C166.426 58.1147 165.726 58.288 164.939 58.288ZM165.139 56.748C165.739 56.748 166.293 56.588 166.799 56.268C167.319 55.948 167.733 55.4947 168.039 54.908C168.359 54.3213 168.519 53.6413 168.519 52.868C168.519 52.0947 168.359 51.4147 168.039 50.828C167.733 50.2413 167.319 49.788 166.799 49.468C166.293 49.148 165.739 48.988 165.139 48.988C164.553 48.988 163.999 49.148 163.479 49.468C162.959 49.788 162.539 50.248 162.219 50.848C161.913 51.4347 161.759 52.108 161.759 52.868C161.759 53.628 161.913 54.308 162.219 54.908C162.539 55.4947 162.959 55.948 163.479 56.268C163.999 56.588 164.553 56.748 165.139 56.748ZM179.778 45.268H175.758V43.648H185.478V45.268H181.478V57.968H179.778V45.268ZM190.218 58.288C189.245 58.288 188.371 58.0547 187.598 57.588C186.825 57.1213 186.218 56.4813 185.778 55.668C185.351 54.8413 185.138 53.9147 185.138 52.888C185.138 51.9013 185.338 50.9947 185.738 50.168C186.151 49.3413 186.731 48.6813 187.478 48.188C188.225 47.6947 189.091 47.448 190.078 47.448C191.078 47.448 191.945 47.6747 192.678 48.128C193.411 48.568 193.971 49.1813 194.358 49.968C194.758 50.7547 194.958 51.6547 194.958 52.668C194.958 52.868 194.938 53.0413 194.898 53.188H186.838C186.878 53.9613 187.065 54.6147 187.398 55.148C187.731 55.6813 188.151 56.0813 188.658 56.348C189.178 56.6147 189.718 56.748 190.278 56.748C191.585 56.748 192.591 56.1347 193.298 54.908L194.738 55.608C194.298 56.4347 193.698 57.088 192.938 57.568C192.191 58.048 191.285 58.288 190.218 58.288ZM193.158 51.788C193.131 51.3613 193.011 50.9347 192.798 50.508C192.585 50.0813 192.245 49.7213 191.778 49.428C191.325 49.1347 190.751 48.988 190.058 48.988C189.258 48.988 188.578 49.248 188.018 49.768C187.471 50.2747 187.111 50.948 186.938 51.788H193.158ZM201.665 58.288C200.678 58.288 199.792 58.0547 199.005 57.588C198.218 57.108 197.605 56.4613 197.165 55.648C196.725 54.8213 196.505 53.8947 196.505 52.868C196.505 51.8413 196.725 50.9147 197.165 50.088C197.605 49.2613 198.218 48.6147 199.005 48.148C199.792 47.6813 200.678 47.448 201.665 47.448C202.772 47.448 203.698 47.708 204.445 48.228C205.205 48.7347 205.745 49.4147 206.065 50.268L204.525 50.908C204.272 50.2813 203.892 49.808 203.385 49.488C202.892 49.1547 202.292 48.988 201.585 48.988C200.985 48.988 200.425 49.1547 199.905 49.488C199.385 49.808 198.965 50.2613 198.645 50.848C198.338 51.4347 198.185 52.108 198.185 52.868C198.185 53.628 198.338 54.3013 198.645 54.888C198.965 55.4747 199.385 55.9347 199.905 56.268C200.425 56.588 200.985 56.748 201.585 56.748C202.305 56.748 202.925 56.5813 203.445 56.248C203.965 55.9147 204.352 55.4413 204.605 54.828L206.125 55.468C205.778 56.308 205.218 56.988 204.445 57.508C203.685 58.028 202.758 58.288 201.665 58.288ZM207.963 47.768H209.583V49.268H209.663C209.943 48.7613 210.39 48.3347 211.003 47.988C211.616 47.628 212.27 47.448 212.963 47.448C214.19 47.448 215.123 47.808 215.763 48.528C216.416 49.2347 216.743 50.2013 216.743 51.428V57.968H215.043V51.688C215.043 50.7413 214.816 50.0547 214.363 49.628C213.91 49.2013 213.29 48.988 212.503 48.988C211.956 48.988 211.463 49.1413 211.023 49.448C210.596 49.7547 210.263 50.1613 210.023 50.668C209.783 51.1613 209.663 51.6813 209.663 52.228V57.968H207.963V47.768ZM223.874 58.288C222.874 58.288 221.974 58.048 221.174 57.568C220.374 57.088 219.747 56.4347 219.294 55.608C218.854 54.7813 218.634 53.868 218.634 52.868C218.634 51.868 218.854 50.9547 219.294 50.128C219.747 49.3013 220.374 48.648 221.174 48.168C221.974 47.688 222.874 47.448 223.874 47.448C224.874 47.448 225.774 47.688 226.574 48.168C227.374 48.648 227.994 49.3013 228.434 50.128C228.887 50.9547 229.114 51.868 229.114 52.868C229.114 53.868 228.887 54.7813 228.434 55.608C227.994 56.4347 227.374 57.088 226.574 57.568C225.774 58.048 224.874 58.288 223.874 58.288ZM223.874 56.748C224.501 56.748 225.081 56.5947 225.614 56.288C226.161 55.968 226.594 55.5147 226.914 54.928C227.247 54.3413 227.414 53.6547 227.414 52.868C227.414 52.0813 227.247 51.3947 226.914 50.808C226.594 50.2213 226.161 49.7747 225.614 49.468C225.081 49.148 224.501 48.988 223.874 48.988C223.247 48.988 222.661 49.148 222.114 49.468C221.567 49.7747 221.127 50.2213 220.794 50.808C220.474 51.3947 220.314 52.0813 220.314 52.868C220.314 53.6547 220.474 54.3413 220.794 54.928C221.127 55.5147 221.567 55.968 222.114 56.288C222.661 56.5947 223.247 56.748 223.874 56.748ZM230.99 43.648H232.69V57.968H230.99V43.648ZM239.812 58.288C238.812 58.288 237.912 58.048 237.112 57.568C236.312 57.088 235.685 56.4347 235.232 55.608C234.792 54.7813 234.572 53.868 234.572 52.868C234.572 51.868 234.792 50.9547 235.232 50.128C235.685 49.3013 236.312 48.648 237.112 48.168C237.912 47.688 238.812 47.448 239.812 47.448C240.812 47.448 241.712 47.688 242.512 48.168C243.312 48.648 243.932 49.3013 244.372 50.128C244.825 50.9547 245.052 51.868 245.052 52.868C245.052 53.868 244.825 54.7813 244.372 55.608C243.932 56.4347 243.312 57.088 242.512 57.568C241.712 58.048 240.812 58.288 239.812 58.288ZM239.812 56.748C240.438 56.748 241.018 56.5947 241.552 56.288C242.098 55.968 242.532 55.5147 242.852 54.928C243.185 54.3413 243.352 53.6547 243.352 52.868C243.352 52.0813 243.185 51.3947 242.852 50.808C242.532 50.2213 242.098 49.7747 241.552 49.468C241.018 49.148 240.438 48.988 239.812 48.988C239.185 48.988 238.598 49.148 238.052 49.468C237.505 49.7747 237.065 50.2213 236.732 50.808C236.412 51.3947 236.252 52.0813 236.252 52.868C236.252 53.6547 236.412 54.3413 236.732 54.928C237.065 55.5147 237.505 55.968 238.052 56.288C238.598 56.5947 239.185 56.748 239.812 56.748ZM240.112 43.248H241.972L240.552 45.788H239.072L240.112 43.248ZM251.506 62.6081C250.306 62.6081 249.312 62.3281 248.526 61.7681C247.752 61.2081 247.232 60.5351 246.966 59.748L248.506 59.088C248.732 59.6747 249.106 60.1481 249.626 60.5081C250.159 60.8811 250.786 61.0681 251.506 61.0681C252.559 61.0681 253.372 60.7611 253.946 60.1481C254.532 59.5347 254.826 58.668 254.826 57.548V56.408H254.746C254.412 56.928 253.939 57.3547 253.326 57.688C252.726 58.008 252.039 58.168 251.266 58.168C250.386 58.168 249.579 57.9413 248.846 57.488C248.126 57.0347 247.552 56.4013 247.126 55.588C246.699 54.7747 246.486 53.848 246.486 52.808C246.486 51.7813 246.699 50.8613 247.126 50.048C247.552 49.2213 248.126 48.5813 248.846 48.128C249.579 47.6747 250.386 47.448 251.266 47.448C252.039 47.448 252.726 47.6147 253.326 47.948C253.939 48.268 254.412 48.6947 254.746 49.228H254.826V47.768H256.446V57.568C256.446 59.208 255.992 60.4551 255.086 61.3081C254.179 62.1751 252.986 62.6081 251.506 62.6081ZM251.506 56.628C252.119 56.628 252.672 56.4747 253.166 56.168C253.672 55.8613 254.072 55.4213 254.366 54.848C254.672 54.2747 254.826 53.5947 254.826 52.808C254.826 52.008 254.672 51.3213 254.366 50.748C254.072 50.1747 253.672 49.7413 253.166 49.448C252.672 49.1413 252.119 48.988 251.506 48.988C250.892 48.988 250.332 49.1413 249.826 49.448C249.319 49.7547 248.912 50.1947 248.606 50.768C248.312 51.3413 248.166 52.0213 248.166 52.808C248.166 53.5947 248.312 54.2813 248.606 54.868C248.912 55.4413 249.319 55.8813 249.826 56.188C250.332 56.4813 250.892 56.628 251.506 56.628ZM259.959 45.888C259.626 45.888 259.339 45.768 259.099 45.528C258.859 45.288 258.739 45.0013 258.739 44.668C258.739 44.3347 258.859 44.0547 259.099 43.828C259.339 43.588 259.626 43.468 259.959 43.468C260.293 43.468 260.579 43.588 260.819 43.828C261.059 44.0547 261.179 44.3347 261.179 44.668C261.179 45.0013 261.059 45.288 260.819 45.528C260.593 45.768 260.306 45.888 259.959 45.888ZM259.119 47.768H260.799V57.968H259.119V47.768ZM267.993 58.288C267.007 58.288 266.12 58.0547 265.333 57.588C264.547 57.108 263.933 56.4613 263.493 55.648C263.053 54.8213 262.833 53.8947 262.833 52.868C262.833 51.8413 263.053 50.9147 263.493 50.088C263.933 49.2613 264.547 48.6147 265.333 48.148C266.12 47.6813 267.007 47.448 267.993 47.448C269.1 47.448 270.027 47.708 270.773 48.228C271.533 48.7347 272.073 49.4147 272.393 50.268L270.853 50.908C270.6 50.2813 270.22 49.808 269.713 49.488C269.22 49.1547 268.62 48.988 267.913 48.988C267.313 48.988 266.753 49.1547 266.233 49.488C265.713 49.808 265.293 50.2613 264.973 50.848C264.667 51.4347 264.513 52.108 264.513 52.868C264.513 53.628 264.667 54.3013 264.973 54.888C265.293 55.4747 265.713 55.9347 266.233 56.268C266.753 56.588 267.313 56.748 267.913 56.748C268.633 56.748 269.253 56.5813 269.773 56.248C270.293 55.9147 270.68 55.4413 270.933 54.828L272.453 55.468C272.107 56.308 271.547 56.988 270.773 57.508C270.013 58.028 269.087 58.288 267.993 58.288ZM277.454 58.288C276.707 58.288 276.04 58.1413 275.454 57.848C274.867 57.5547 274.414 57.1547 274.094 56.648C273.774 56.128 273.614 55.5413 273.614 54.888C273.614 53.808 274.02 52.968 274.834 52.368C275.647 51.7547 276.674 51.448 277.914 51.448C278.527 51.448 279.094 51.5147 279.614 51.648C280.147 51.7813 280.554 51.9347 280.834 52.108V51.488C280.834 50.728 280.567 50.1213 280.034 49.668C279.5 49.2013 278.827 48.968 278.014 48.968C277.44 48.968 276.914 49.0947 276.434 49.348C275.954 49.588 275.574 49.928 275.294 50.368L274.014 49.408C274.414 48.7947 274.96 48.3147 275.654 47.968C276.36 47.6213 277.14 47.448 277.994 47.448C279.38 47.448 280.467 47.8147 281.254 48.548C282.054 49.268 282.454 50.2547 282.454 51.508V57.968H280.834V56.508H280.754C280.46 57.0013 280.02 57.4213 279.434 57.768C278.847 58.1147 278.187 58.288 277.454 58.288ZM277.614 56.788C278.187 56.788 278.72 56.6413 279.214 56.348C279.707 56.0547 280.1 55.6613 280.394 55.168C280.687 54.6747 280.834 54.1347 280.834 53.548C280.514 53.3347 280.12 53.1613 279.654 53.028C279.187 52.8947 278.694 52.828 278.174 52.828C277.24 52.828 276.534 53.0213 276.054 53.408C275.587 53.7947 275.354 54.2947 275.354 54.908C275.354 55.468 275.567 55.9213 275.994 56.268C276.42 56.6147 276.96 56.788 277.614 56.788ZM293.787 58.288C292.88 58.288 292.054 58.0547 291.307 57.588C290.574 57.1213 289.994 56.4813 289.567 55.668C289.14 54.8413 288.927 53.908 288.927 52.868C288.927 51.8413 289.14 50.9147 289.567 50.088C289.994 49.2613 290.574 48.6147 291.307 48.148C292.054 47.6813 292.88 47.448 293.787 47.448C294.574 47.448 295.274 47.628 295.887 47.988C296.5 48.3347 296.967 48.768 297.287 49.288H297.367L297.287 47.868V43.648H298.987V57.968H297.367V56.468H297.287C296.967 56.9747 296.5 57.408 295.887 57.768C295.274 58.1147 294.574 58.288 293.787 58.288ZM293.987 56.748C294.587 56.748 295.14 56.588 295.647 56.268C296.167 55.948 296.58 55.4947 296.887 54.908C297.207 54.3213 297.367 53.6413 297.367 52.868C297.367 52.0947 297.207 51.4147 296.887 50.828C296.58 50.2413 296.167 49.788 295.647 49.468C295.14 49.148 294.587 48.988 293.987 48.988C293.4 48.988 292.847 49.148 292.327 49.468C291.807 49.788 291.387 50.248 291.067 50.848C290.76 51.4347 290.607 52.108 290.607 52.868C290.607 53.628 290.76 54.308 291.067 54.908C291.387 55.4947 291.807 55.948 292.327 56.268C292.847 56.588 293.4 56.748 293.987 56.748ZM305.941 58.288C304.967 58.288 304.094 58.0547 303.321 57.588C302.547 57.1213 301.941 56.4813 301.501 55.668C301.074 54.8413 300.861 53.9147 300.861 52.888C300.861 51.9013 301.061 50.9947 301.461 50.168C301.874 49.3413 302.454 48.6813 303.201 48.188C303.947 47.6947 304.814 47.448 305.801 47.448C306.801 47.448 307.667 47.6747 308.401 48.128C309.134 48.568 309.694 49.1813 310.081 49.968C310.481 50.7547 310.681 51.6547 310.681 52.668C310.681 52.868 310.661 53.0413 310.621 53.188H302.561C302.601 53.9613 302.787 54.6147 303.121 55.148C303.454 55.6813 303.874 56.0813 304.381 56.348C304.901 56.6147 305.441 56.748 306.001 56.748C307.307 56.748 308.314 56.1347 309.021 54.908L310.461 55.608C310.021 56.4347 309.421 57.088 308.661 57.568C307.914 58.048 307.007 58.288 305.941 58.288ZM308.881 51.788C308.854 51.3613 308.734 50.9347 308.521 50.508C308.307 50.0813 307.967 49.7213 307.501 49.428C307.047 49.1347 306.474 48.988 305.781 48.988C304.981 48.988 304.301 49.248 303.741 49.768C303.194 50.2747 302.834 50.948 302.661 51.788H308.881ZM312.67 43.648H314.37V57.968H312.67V43.648ZM321.877 43.648H326.697C327.497 43.648 328.237 43.828 328.917 44.188C329.597 44.548 330.137 45.0547 330.537 45.708C330.951 46.348 331.157 47.0747 331.157 47.888C331.157 48.7013 330.951 49.4347 330.537 50.088C330.137 50.728 329.597 51.228 328.917 51.588C328.237 51.948 327.497 52.128 326.697 52.128H323.557V57.968H321.877V43.648ZM326.737 50.508C327.271 50.508 327.737 50.3813 328.137 50.128C328.551 49.8747 328.871 49.548 329.097 49.148C329.324 48.748 329.437 48.328 329.437 47.888C329.437 47.448 329.324 47.028 329.097 46.628C328.871 46.228 328.551 45.9013 328.137 45.648C327.737 45.3947 327.271 45.268 326.737 45.268H323.557V50.508H326.737ZM336.898 58.288C335.924 58.288 335.051 58.0547 334.278 57.588C333.504 57.1213 332.898 56.4813 332.458 55.668C332.031 54.8413 331.818 53.9147 331.818 52.888C331.818 51.9013 332.018 50.9947 332.418 50.168C332.831 49.3413 333.411 48.6813 334.158 48.188C334.904 47.6947 335.771 47.448 336.758 47.448C337.758 47.448 338.624 47.6747 339.358 48.128C340.091 48.568 340.651 49.1813 341.038 49.968C341.438 50.7547 341.638 51.6547 341.638 52.668C341.638 52.868 341.618 53.0413 341.578 53.188H333.518C333.558 53.9613 333.744 54.6147 334.078 55.148C334.411 55.6813 334.831 56.0813 335.338 56.348C335.858 56.6147 336.398 56.748 336.958 56.748C338.264 56.748 339.271 56.1347 339.978 54.908L341.418 55.608C340.978 56.4347 340.378 57.088 339.618 57.568C338.871 58.048 337.964 58.288 336.898 58.288ZM339.838 51.788C339.811 51.3613 339.691 50.9347 339.478 50.508C339.264 50.0813 338.924 49.7213 338.458 49.428C338.004 49.1347 337.431 48.988 336.738 48.988C335.938 48.988 335.258 49.248 334.698 49.768C334.151 50.2747 333.791 50.948 333.618 51.788H339.838ZM343.627 47.768H345.247V49.408H345.327C345.527 48.848 345.914 48.388 346.487 48.028C347.061 47.6547 347.661 47.468 348.287 47.468C348.754 47.468 349.154 47.5347 349.487 47.668V49.508C349.061 49.2947 348.581 49.188 348.047 49.188C347.554 49.188 347.101 49.328 346.687 49.608C346.274 49.888 345.941 50.268 345.687 50.748C345.447 51.2147 345.327 51.7213 345.327 52.268V57.968H343.627V47.768ZM354.827 58.288C353.601 58.288 352.661 57.928 352.007 57.208C351.367 56.488 351.047 55.4813 351.047 54.188V47.768H352.747V53.928C352.747 54.9013 352.967 55.6147 353.407 56.068C353.847 56.5213 354.441 56.748 355.187 56.748C355.761 56.748 356.267 56.5947 356.707 56.288C357.161 55.9813 357.507 55.5813 357.747 55.088C358.001 54.5947 358.127 54.0747 358.127 53.528V47.768H359.827V57.968H358.207V56.488H358.127C357.847 56.9947 357.401 57.4213 356.787 57.768C356.174 58.1147 355.521 58.288 354.827 58.288ZM355.727 43.248H357.587L356.167 45.788H354.687L355.727 43.248Z" fill="white"/>
<path d="M37.5 7H4.5C2.01472 7 0 9.01472 0 11.5C0 13.9853 2.01472 16 4.5 16H37.5C39.9853 16 42 13.9853 42 11.5C42 9.01472 39.9853 7 37.5 7Z" fill="white"/>
<path d="M36.5 22.9678H24.5C22.0147 22.9678 20 24.9825 20 27.4678C20 29.9531 22.0147 31.9678 24.5 31.9678H36.5C38.9853 31.9678 41 29.9531 41 27.4678C41 24.9825 38.9853 22.9678 36.5 22.9678Z" fill="white"/>
<path d="M36.5 40H4.5C2.01472 40 0 42.0147 0 44.5C0 46.9853 2.01472 49 4.5 49H36.5C38.9853 49 41 46.9853 41 44.5C41 42.0147 38.9853 40 36.5 40Z" fill="white"/>
<path d="M36.5 56.9678H24.5C22.0147 56.9678 20 58.9825 20 61.4678C20 63.9531 22.0147 65.9678 24.5 65.9678H36.5C38.9853 65.9678 41 63.9531 41 61.4678C41 58.9825 38.9853 56.9678 36.5 56.9678Z" fill="white"/>
<path d="M51.8 70V0" stroke="white" stroke-width="1.4"/>
</g>
</g>
<defs>
<clipPath id="clip0_58_153">
<rect width="410" height="70" fill="white"/>
</clipPath>
</defs>
</svg>
