<?xml version="1.0" encoding="UTF-8"?>
<svg id="Capa_1" xmlns="http://www.w3.org/2000/svg" version="1.1" viewBox="0 0 208 79">
  <!-- Generator: Adobe Illustrator 29.0.0, SVG Export Plug-In . SVG Version: 2.1.0 Build 186)  -->
  <defs>
    <style>
      .st0 {
        fill: #fff;
      }

      .st1 {
        fill: #40baca;
      }
    </style>
  </defs>
  <g>
    <path class="st0" d="M50.16,54.46c-2.04,9.93-10.82,17.39-21.35,17.39-12.04,0-21.8-9.76-21.8-21.8s9.76-21.8,21.8-21.8v-5.63c-15.15,0-27.43,12.28-27.43,27.43s12.28,27.43,27.43,27.43c13.65,0,24.97-9.97,27.07-23.03h-5.72Z"/>
    <polygon class="st1" points="29.01 55.89 25.77 54.03 40.11 28.97 64.11 38.42 74.72 12.56 78.17 13.97 66.16 43.23 41.75 33.62 29.01 55.89"/>
    <polygon class="st0" points="57.08 66.04 52.11 55.89 41.95 60.86 39.99 56.85 54.16 49.91 61.09 64.08 57.08 66.04"/>
    <circle class="st0" cx="27.39" cy="54.96" r="5.89"/>
    <circle class="st0" cx="40.93" cy="31.29" r="7.8"/>
    <circle class="st0" cx="65.13" cy="40.83" r="9.54"/>
    <circle class="st0" cx="76.44" cy="13.26" r="12.05"/>
  </g>
  <g>
    <path class="st0" d="M100.1,39.46v-21.83h7.93c1.78,0,3.35.29,4.69.86,1.34.57,2.46,1.35,3.37,2.34.9.98,1.58,2.14,2.03,3.46.45,1.32.68,2.73.68,4.23,0,1.66-.25,3.16-.75,4.5-.5,1.34-1.23,2.49-2.17,3.44-.94.95-2.08,1.69-3.4,2.21-1.32.52-2.8.78-4.44.78h-7.93ZM114.52,28.51c0-1.05-.14-2.01-.43-2.89-.29-.88-.71-1.64-1.26-2.28-.55-.63-1.23-1.13-2.04-1.48-.81-.35-1.73-.52-2.75-.52h-3.69v14.39h3.69c1.05,0,1.97-.18,2.78-.55.81-.37,1.49-.88,2.03-1.52.54-.65.96-1.41,1.25-2.29.29-.88.43-1.83.43-2.86Z"/>
    <path class="st0" d="M126.11,39.76c-.78,0-1.51-.13-2.18-.38-.68-.26-1.26-.61-1.75-1.08-.49-.46-.88-1-1.15-1.61-.28-.61-.42-1.29-.42-2.03s.17-1.46.51-2.11c.34-.65.81-1.19,1.41-1.64.6-.45,1.33-.8,2.17-1.06.84-.26,1.76-.38,2.77-.38.72,0,1.42.06,2.11.18.69.12,1.3.3,1.83.52v-.92c0-1.07-.3-1.89-.91-2.46-.6-.57-1.5-.86-2.69-.86-.86,0-1.7.15-2.52.46-.82.31-1.66.76-2.52,1.35l-1.26-2.61c2.07-1.37,4.3-2.06,6.7-2.06s4.11.57,5.4,1.71c1.28,1.14,1.92,2.78,1.92,4.93v5.01c0,.43.08.74.23.92.15.18.4.29.75.31v3.5c-.7.14-1.3.22-1.81.22-.78,0-1.38-.17-1.8-.52-.42-.35-.68-.81-.78-1.38l-.09-.89c-.72.94-1.59,1.66-2.61,2.15-1.03.49-2.12.74-3.29.74ZM127.27,36.75c.7,0,1.36-.12,1.98-.37.62-.25,1.11-.57,1.46-.98.45-.35.68-.74.68-1.17v-1.84c-.49-.18-1.03-.33-1.6-.45-.57-.11-1.13-.17-1.66-.17-1.07,0-1.94.24-2.61.72-.68.48-1.01,1.09-1.01,1.83,0,.7.27,1.28.8,1.74.53.46,1.19.69,1.97.69Z"/>
    <path class="st0" d="M148.89,38.63c-.55.25-1.23.49-2.03.74-.8.25-1.64.37-2.52.37-.57,0-1.11-.07-1.61-.22-.5-.14-.94-.37-1.32-.69-.38-.32-.68-.73-.91-1.23-.23-.5-.34-1.11-.34-1.83v-9.25h-2.12v-3.17h2.12v-5.23h4.12v5.23h3.38v3.17h-3.38v7.87c0,.57.15.98.45,1.21.3.24.66.35,1.09.35s.85-.07,1.26-.22c.41-.14.74-.27.98-.37l.83,3.26Z"/>
    <path class="st0" d="M155.44,39.76c-.78,0-1.51-.13-2.18-.38-.68-.26-1.26-.61-1.75-1.08-.49-.46-.88-1-1.15-1.61-.28-.61-.42-1.29-.42-2.03s.17-1.46.51-2.11c.34-.65.81-1.19,1.41-1.64.6-.45,1.33-.8,2.17-1.06.84-.26,1.76-.38,2.77-.38.72,0,1.42.06,2.11.18.69.12,1.3.3,1.83.52v-.92c0-1.07-.3-1.89-.91-2.46-.6-.57-1.5-.86-2.69-.86-.86,0-1.7.15-2.52.46-.82.31-1.66.76-2.52,1.35l-1.26-2.61c2.07-1.37,4.3-2.06,6.7-2.06s4.11.57,5.4,1.71c1.28,1.14,1.92,2.78,1.92,4.93v5.01c0,.43.08.74.23.92.15.18.4.29.75.31v3.5c-.7.14-1.3.22-1.81.22-.78,0-1.38-.17-1.8-.52-.42-.35-.68-.81-.78-1.38l-.09-.89c-.72.94-1.59,1.66-2.61,2.15-1.03.49-2.12.74-3.29.74ZM156.61,36.75c.7,0,1.36-.12,1.98-.37.62-.25,1.11-.57,1.46-.98.45-.35.68-.74.68-1.17v-1.84c-.49-.18-1.03-.33-1.6-.45-.57-.11-1.13-.17-1.66-.17-1.07,0-1.94.24-2.61.72-.68.48-1.01,1.09-1.01,1.83,0,.7.27,1.28.8,1.74.53.46,1.19.69,1.97.69Z"/>
  </g>
  <g>
    <path class="st1" d="M116.55,68.53c-1.74,1.74-3.77,2.61-6.09,2.61-1.44,0-2.78-.29-4.04-.86-1.26-.57-2.36-1.36-3.29-2.37-.93-1-1.67-2.19-2.21-3.55-.54-1.36-.81-2.83-.81-4.41,0-1.5.27-2.91.81-4.23.54-1.32,1.29-2.48,2.24-3.47.95-.99,2.08-1.78,3.37-2.37,1.29-.58,2.7-.88,4.21-.88,2.05,0,3.81.43,5.27,1.29,1.47.86,2.57,2.02,3.31,3.47l-3.17,2.34c-.55-1.09-1.33-1.92-2.32-2.49-.99-.57-2.08-.86-3.24-.86-.92,0-1.77.2-2.54.58-.77.39-1.42.92-1.97,1.6-.54.68-.96,1.46-1.26,2.34-.3.88-.45,1.81-.45,2.8s.16,1.98.49,2.87c.33.89.78,1.67,1.35,2.32.57.66,1.26,1.17,2.04,1.55.79.38,1.64.57,2.57.57,2.11,0,4.02-.99,5.72-2.98v-1.54h-4.4v-3.11h7.9v11.22h-3.5v-2.46Z"/>
    <path class="st1" d="M132.87,58.44c-1.25.02-2.37.26-3.35.72s-1.69,1.15-2.12,2.08v9.75h-4.12v-16.11h3.78v3.44c.29-.55.62-1.05,1.01-1.49.39-.44.81-.82,1.26-1.15.45-.33.91-.58,1.37-.75.46-.17.91-.26,1.34-.26h.51c.11,0,.22.01.32.03v3.75Z"/>
    <path class="st1" d="M141.82,71.29c-1.31,0-2.49-.23-3.54-.68-1.05-.45-1.93-1.06-2.66-1.83-.73-.77-1.29-1.66-1.68-2.66-.39-1-.58-2.06-.58-3.17s.19-2.19.58-3.2c.39-1,.95-1.89,1.68-2.66.73-.77,1.61-1.38,2.66-1.83,1.05-.45,2.22-.68,3.54-.68s2.49.23,3.52.68c1.03.45,1.92,1.06,2.64,1.83.73.77,1.29,1.66,1.68,2.66.39,1,.58,2.07.58,3.2s-.2,2.16-.58,3.17c-.39,1-.94,1.89-1.66,2.66-.72.77-1.6,1.38-2.64,1.83-1.05.45-2.22.68-3.54.68ZM137.61,62.96c0,.72.11,1.37.32,1.95.22.58.51,1.09.89,1.52.38.43.82.76,1.34,1,.51.24,1.07.35,1.66.35s1.15-.12,1.66-.35c.51-.24.96-.57,1.34-1,.38-.43.68-.94.89-1.54.22-.59.32-1.25.32-1.97s-.11-1.34-.32-1.94c-.22-.59-.51-1.11-.89-1.54-.38-.43-.83-.76-1.34-1-.51-.24-1.07-.35-1.66-.35s-1.15.12-1.66.37c-.51.25-.96.58-1.34,1.01-.38.43-.68.94-.89,1.54-.22.59-.32,1.24-.32,1.94Z"/>
    <path class="st1" d="M172.41,54.88h3.9l-6.73,16.11h-3.38l-2.77-7.07-2.74,7.07h-3.38l-6.7-16.11h3.87l4.8,12.24,1.97-5.23-2.83-6.98h3.32l1.69,4.95,1.72-4.95h3.32l-2.8,6.98,1.94,5.23,4.8-12.24Z"/>
    <path class="st1" d="M187.87,70.16c-.55.25-1.23.49-2.03.74-.8.25-1.64.37-2.52.37-.57,0-1.11-.07-1.61-.22-.5-.14-.94-.37-1.32-.69-.38-.32-.68-.73-.91-1.23-.23-.5-.34-1.11-.34-1.83v-9.25h-2.12v-3.17h2.12v-5.23h4.12v5.23h3.38v3.17h-3.38v7.87c0,.57.15.98.45,1.21.3.24.66.35,1.09.35s.85-.07,1.26-.22c.41-.14.74-.27.98-.37l.83,3.26Z"/>
    <path class="st1" d="M205,70.99h-4.12v-9.04c0-1.27-.24-2.21-.71-2.81-.47-.6-1.14-.91-2-.91-.37,0-.76.08-1.17.25-.41.16-.8.39-1.17.69-.37.3-.71.65-1.01,1.06-.31.41-.53.86-.68,1.35v9.41h-4.12v-22.44h4.12v9.32c.59-1.05,1.4-1.85,2.41-2.41,1.01-.56,2.14-.85,3.37-.85,1.05,0,1.9.18,2.55.54.66.36,1.17.84,1.54,1.43.37.59.62,1.27.77,2.03.14.76.22,1.54.22,2.34v10.05Z"/>
  </g>
</svg>